<?xml version="1.0" encoding="UTF-8" standalone="yes"?>
<svg version="1.2" width="910" height="910" baseProfile="tiny-ps" xmlns="http://www.w3.org/2000/svg">
  <title>bimi-svg-tiny-12-ps</title>
  <path d="M0 0 C300.3 0 600.6 0 910 0 C910 300.3 910 600.6 910 910 C609.7 910 309.4 910 0 910 C0 609.7 0 309.4 0 0 Z " fill="#252525" transform="translate(0,0)"/>
  <path d="M0 0 C17.9523248 -0.07055538 35.90461288 -0.12321328 53.85704708 -0.15543652 C62.19551712 -0.17080608 70.53390026 -0.19170203 78.87231445 -0.22631836 C86.15292397 -0.25652849 93.43347048 -0.27564665 100.71414095 -0.28226548 C104.557548 -0.28612517 108.40077502 -0.2949795 112.24412346 -0.31719017 C144.28451258 -0.49485176 175.97133969 1.97518321 206 14 C206.98226562 14.38212646 206.98226562 14.38212646 207.984375 14.77197266 C239.5326003 27.15371954 262.96649271 48.11246258 276.75 79.0625 C281.6156979 90.36578655 284.66919171 101.92974279 287 114 C287.1959375 114.99773437 287.391875 115.99546875 287.59375 117.0234375 C290.7684734 134.4377291 290.28633734 152.3061647 290.3125 169.9375 C290.31365059 170.61163815 290.31480118 171.28577629 290.31598663 171.98034286 C290.35566563 205.51823901 287.5695221 237.9334636 280.67871094 270.765625 C280.09914128 273.52754546 279.54656539 276.29242173 279.0078125 279.0625 C277.21756192 287.98723794 274.70574586 296.66762072 272.0625 305.375 C271.73846191 306.44540527 271.41442383 307.51581055 271.08056641 308.61865234 C268.79812316 315.94446745 266.04255168 322.95993939 263 330 C262.17559007 331.96736781 261.35137193 333.93481601 260.52734375 335.90234375 C242.0618571 379.24341277 214.28738115 418.34381059 172 441 C171.3184082 441.36544922 170.63681641 441.73089844 169.93457031 442.10742188 C152.04692172 451.50311895 132.67195797 458.00386794 112.875 461.9375 C111.94937256 462.12473633 111.02374512 462.31197266 110.07006836 462.50488281 C88.42994736 466.41651884 66.30709212 466.28847392 44.3970077 466.20278788 C40.56811078 466.19003655 36.73920846 466.18909127 32.91029358 466.18673706 C25.70394678 466.18059229 18.49766278 466.16427947 11.29134327 466.14403808 C3.06843796 466.121457 -5.15447082 466.11063062 -13.37739956 466.10064721 C-30.2516361 466.07990445 -47.12580996 466.04486939 -64 466 C-63.84457932 463.92477746 -63.68795413 461.8496451 -63.53082275 459.77455139 C-63.44373173 458.61895249 -63.3566407 457.4633536 -63.26691055 456.27273655 C-62.94992389 452.38598934 -62.49911893 448.54922443 -61.984375 444.68359375 C-61.88843552 443.95642654 -61.79249603 443.22925934 -61.69364929 442.48005676 C-61.38276464 440.13203295 -61.06661528 437.78475736 -60.75 435.4375 C-60.52725639 433.7685772 -60.30468485 432.09963143 -60.08227539 430.43066406 C-59.39481921 425.28620493 -58.69848334 420.14297205 -58 415 C-57.89024841 414.19048889 -57.78049683 413.38097778 -57.66741943 412.54693604 C-55.5656546 397.05414023 -53.43750175 381.56909001 -51 366.125 C-49.30103026 355.35561224 -47.84734033 344.56021702 -46.4375 333.75 C-46.27482132 332.50307373 -46.27482132 332.50307373 -46.1088562 331.23095703 C-45.58519106 327.21306896 -45.06310326 323.19497788 -44.54199219 319.17675781 C-43.01323206 307.39072324 -41.4052278 295.62195185 -39.625 283.87109375 C-39.49949768 283.0426445 -39.37399536 282.21419525 -39.24468994 281.36064148 C-38.71839493 277.88824036 -38.19204787 274.41584734 -37.66491699 270.943573 C-35.717098 258.08943739 -33.9458251 245.22609631 -32.32836914 232.32641602 C-31.40172027 224.97500162 -30.35709882 217.66315392 -29.14379883 210.35424805 C-27.9089118 202.7611481 -26.96383827 195.13113976 -26 187.5 C-24.85412668 178.42760712 -23.64265681 169.38105419 -22.14453125 160.359375 C-20.90970154 152.76450837 -19.9640561 145.13286441 -19 137.5 C-17.85412668 128.42760712 -16.64265681 119.38105419 -15.14453125 110.359375 C-13.90970073 102.76450341 -12.96417239 95.13285259 -12 87.5 C-10.96310603 79.29411242 -9.9246751 71.09699662 -8.5625 62.9375 C-6.3031155 49.35245169 -4.67526203 35.6643923 -2.912323 22.00801086 C-1.96343379 14.66910613 -0.98066033 7.33471181 0 0 Z " fill="#6785F1" transform="translate(475,222)"/>
  <path d="M0 0 C2.0534723 -0.00439924 4.10688251 -0.0134517 6.16033554 -0.02319717 C30.61924892 -0.09554368 54.85408055 1.48803096 78.97079086 5.7455101 C80.81241806 6.06406967 80.81241806 6.06406967 82.69124985 6.38906479 C110.4118917 11.30876914 137.05988914 19.08217918 163.53329086 28.6205101 C164.64180405 29.01206284 165.75031723 29.40361557 166.89242172 29.80703354 C172.60443261 31.9197495 177.20345768 34.20541618 181.93392563 38.04262924 C184.66978753 40.17143557 187.66224692 41.57050493 190.78329086 43.0580101 C192.19424654 43.74647833 193.60435259 44.43668957 195.01375961 45.1283226 C195.76963364 45.49731674 196.52550766 45.86631088 197.30428696 46.24648666 C221.71574662 58.2327156 245.07963915 71.91952943 266.72079086 88.4330101 C267.34872543 88.91076889 267.97666 89.38852768 268.62362289 89.88076401 C285.68265348 102.92590505 301.63445295 117.15903898 316.81283188 132.33974838 C318.41283605 133.93754903 320.02072701 135.52712561 321.62899399 137.11660385 C328.11261677 143.56552331 334.03375089 150.25854466 339.72079086 157.4330101 C340.58395486 158.46074853 341.45234372 159.48416927 342.33016586 160.49941635 C359.70913235 180.7643061 373.86888068 203.44245187 386.37899399 226.95254135 C387.91050132 229.7837121 389.52010201 232.56130104 391.14657211 235.33852768 C400.49345111 251.38754377 408.50868135 268.58975231 413.72079086 286.4330101 C415.38303833 291.82219136 417.35487623 296.90411986 419.65829086 302.0580101 C422.2914546 308.09153097 424.12491215 314.05778157 425.66610336 320.4720726 C426.4796572 323.74713716 427.55460419 326.89446869 428.66219711 330.0814476 C430.81396872 336.44619295 432.24818662 342.84536806 433.53329086 349.4330101 C433.76209946 350.53773666 433.99090805 351.64246323 434.22665024 352.78066635 C434.43741196 353.84156479 434.64817368 354.90246323 434.86532211 355.9955101 C435.0545726 356.94554916 435.24382309 357.89558823 435.43880844 358.87441635 C435.71727689 361.40112572 435.51798205 363.04178818 434.72079086 365.4330101 C431.85223203 359.82628148 431.04287834 354.56837707 430.34579086 348.3236351 C430.0253944 345.45490514 430.0253944 345.45490514 428.3213768 344.20302963 C425.96389196 341.59598798 425.3663354 338.54420632 424.48641586 335.2220726 C424.28752258 334.50533371 424.0886293 333.78859482 423.88370895 333.05013657 C423.45842165 331.51568964 423.03730971 329.98008045 422.6199913 328.44344711 C421.53569386 324.45927969 420.41434821 320.48557347 419.29500961 316.5111351 C418.96484093 315.335495 418.96484093 315.335495 418.62800217 314.13610458 C416.80064762 307.65389651 414.87265303 301.21115481 412.78329086 294.8080101 C412.51355453 293.9515892 412.24381821 293.0951683 411.96590805 292.21279526 C411.31268732 290.25189434 410.53003427 288.33483944 409.72079086 286.4330101 C408.73079086 286.1030101 407.74079086 285.7730101 406.72079086 285.4330101 C405.22201157 282.81948471 405.22201157 282.81948471 403.64657211 279.33535385 C403.36176483 278.71409119 403.07695755 278.09282852 402.78351974 277.45273972 C402.17416882 276.12085983 401.56946698 274.78684504 400.96895981 273.45095444 C399.71771329 270.66882862 398.44296318 267.89771494 397.16918564 265.12585068 C396.54107474 263.75847301 395.91409522 262.39057506 395.28826523 261.02215195 C379.74352537 227.04343791 360.60578541 193.36697464 332.86532211 167.83535385 C331.72079086 166.4330101 331.72079086 166.4330101 331.72079086 163.4330101 C330.95766586 163.2061351 330.19454086 162.9792601 329.40829086 162.7455101 C326.14548816 161.15204832 325.25818377 159.66962674 323.72079086 156.4330101 C323.72079086 155.7730101 323.72079086 155.1130101 323.72079086 154.4330101 C321.22585323 152.23159454 318.6505929 150.38814185 315.84725571 148.59634018 C312.81525217 146.49837178 310.39733578 144.32408299 307.82235336 141.69472885 C306.93032211 140.79174057 306.03829086 139.88875229 305.11922836 138.95840073 C304.20399399 138.02189682 303.28875961 137.08539291 302.34579086 136.1205101 C296.32005341 129.97922229 290.27895105 124.00414128 283.72079086 118.4330101 C282.67210755 117.50797276 281.62514391 116.5809811 280.58016586 115.6517601 C257.62948278 95.48576481 232.53784811 78.93636871 205.10311508 65.59756088 C202.41768103 64.28484102 199.74367952 62.94998498 197.06844711 61.61660385 C174.69860534 50.56379536 151.53128349 41.85543941 127.72079086 34.4330101 C126.78867783 34.14144531 126.78867783 34.14144531 125.83773422 33.84399033 C115.27455478 30.56383001 104.70197219 27.97115238 93.84579086 25.8705101 C93.09377396 25.72304337 92.34175705 25.57557663 91.56695175 25.4236412 C-1.80793829 7.14890268 -94.42687829 16.66490421 -180.65420914 57.6830101 C-182.17848526 58.40786606 -182.17848526 58.40786606 -183.73355484 59.14736557 C-190.1338009 62.24797404 -196.24663595 65.66741268 -202.27920914 69.4330101 C-201.68607925 69.13120834 -201.09294937 68.82940659 -200.48184586 68.51845932 C-180.53603174 58.39307313 -180.53603174 58.39307313 -172.15420914 54.6830101 C-170.57252945 53.97918198 -170.57252945 53.97918198 -168.95889664 53.2611351 C-166.0948145 52.37602517 -165.05861573 52.6177175 -162.27920914 53.4330101 C-161.61920914 52.7730101 -160.95920914 52.1130101 -160.27920914 51.4330101 C-160.27920914 50.7730101 -160.27920914 50.1130101 -160.27920914 49.4330101 C-156.63778855 48.05739662 -152.99390608 46.6885253 -149.34781265 45.32534409 C-147.51182065 44.63741301 -145.67771519 43.94445363 -143.84366226 43.25136948 C-136.73211578 40.59665049 -129.64781775 38.26360902 -122.27920914 36.4330101 C-122.27920914 37.0930101 -122.27920914 37.7530101 -122.27920914 38.4330101 C-122.93920914 38.7630101 -123.59920914 39.0930101 -124.27920914 39.4330101 C-123.94920914 40.0930101 -123.61920914 40.7530101 -123.27920914 41.4330101 C-124.73435928 41.94517075 -124.73435928 41.94517075 -126.2189064 42.46767807 C-150.16426254 50.91547425 -173.75451774 59.49122458 -196.10709 71.67959213 C-200.1145849 73.85442832 -204.03497879 75.76747368 -208.31436539 77.35097885 C-213.64349892 79.41186079 -217.88504952 82.42001738 -222.40420914 85.8705101 C-236.16567813 96.19755376 -236.16567813 96.19755376 -241.96670914 98.49941635 C-244.88743903 99.67856237 -246.87281626 101.34195026 -249.27920914 103.3705101 C-250.23827164 104.1748851 -251.19733414 104.9792601 -252.18545914 105.8080101 C-252.68948257 106.23597885 -253.19350601 106.6639476 -253.71280289 107.1048851 C-255.30115683 108.45161912 -256.89850349 109.78698805 -258.49795914 111.1205101 C-264.72499984 116.32907049 -270.80438955 121.66287469 -276.78311539 127.15566635 C-279.00295464 129.1809657 -281.2531443 131.15898781 -283.52920914 133.1205101 C-286.67088752 135.84712935 -289.59582897 138.72825963 -292.50967789 141.69472885 C-294.30931395 143.46258326 -296.17522826 145.10555552 -298.09170914 146.7455101 C-303.08355068 151.04104369 -307.66785557 155.73661108 -312.27920914 160.4330101 C-308.79763209 157.74493736 -305.70345086 154.91203035 -302.65420914 151.7455101 C-298.42403458 147.47172549 -294.00882055 143.65204214 -289.31436539 139.9017601 C-285.81299279 137.05379681 -282.42327667 134.09458035 -279.02920914 131.1205101 C-254.48169677 109.73550344 -227.78897052 91.15771543 -199.27920914 75.4330101 C-197.90998306 74.67552475 -197.90998306 74.67552475 -196.51309586 73.90273666 C-169.79650736 59.25301292 -141.005293 46.58160237 -111.27920914 39.4330101 C-111.60920914 38.7730101 -111.93920914 38.1130101 -112.27920914 37.4330101 C-100.11093964 28.51698718 -86.91884091 26.63449114 -72.27920914 24.4330101 C-71.29710464 24.27993393 -70.31500015 24.12685776 -69.30313492 23.96914291 C-31.79779704 18.21500557 6.98602267 17.44278004 44.72079086 21.4330101 C45.68758774 21.53484604 46.65438461 21.63668198 47.65047836 21.74160385 C63.47950259 23.47893578 79.11538343 26.2952985 94.72079086 29.4330101 C95.59815903 29.60493881 96.47552719 29.77686752 97.37948227 29.9540062 C139.09979947 38.29474994 180.11320733 56.16350761 216.72079086 77.4330101 C217.42510239 77.83680893 218.12941391 78.24060776 218.85506821 78.65664291 C220.92058962 79.84276515 222.97830679 81.04123979 225.03329086 82.2455101 C225.63802231 82.59444321 226.24275375 82.94337631 226.86581039 83.30288315 C230.72202105 85.60247339 233.56920348 88.26705378 236.72079086 91.4330101 C239.25764792 93.36504879 241.89609264 95.14141072 244.53329086 96.9330101 C253.2997601 103.00932539 261.55158648 109.58230684 269.72079086 116.4330101 C270.30924789 116.92237045 270.89770493 117.4117308 271.50399399 117.91592026 C286.90117113 130.73966841 301.34432178 144.51295083 314.72079086 159.4330101 C315.26686996 160.03967514 315.81294907 160.64634018 316.37557602 161.27138901 C325.02655326 170.92835351 332.99068086 181.02941553 340.72079086 191.4330101 C341.52516586 192.50591293 341.52516586 192.50591293 342.34579086 193.60049057 C365.42144107 224.44891838 365.42144107 224.44891838 371.27938461 242.2064476 C372.56423655 245.08256603 373.56207756 246.53967875 375.61922836 248.8080101 C378.99497213 252.55287098 380.92980163 256.45006934 382.90829086 261.0580101 C383.2799437 261.9048436 383.65159653 262.75167709 384.03451157 263.62417221 C394.99398712 289.03238215 403.57284192 314.89157438 410.06112289 341.7665062 C410.61030239 343.98639459 411.19162507 346.18892479 411.81063461 348.39004135 C414.38050171 357.75096287 415.9153316 367.23040323 417.40829086 376.8080101 C417.51706558 377.50450668 417.6258403 378.20100327 417.73791122 378.9186058 C419.47026374 390.09498867 420.88062155 401.06403483 420.85360336 412.3861351 C420.85456009 413.28998947 420.85551682 414.19384384 420.85650253 415.12508774 C420.85717748 417.01744278 420.8553715 418.90980024 420.85116196 420.80215073 C420.84577863 423.6895733 420.85114319 426.57684212 420.85750961 429.4642601 C420.8568492 431.31321878 420.8555688 433.16217735 420.85360336 435.0111351 C420.85562759 435.86749557 420.85765182 436.72385605 420.8597374 437.60616684 C420.84261781 441.99523619 420.60207113 446.11149871 419.72079086 450.4330101 C419.39079086 450.4330101 419.06079086 450.4330101 418.72079086 450.4330101 C418.69891708 449.36663315 418.69891708 449.36663315 418.67660141 448.27871323 C417.91088583 414.31665674 415.68541306 379.3747797 406.72079086 346.4330101 C406.06079086 346.4330101 405.40079086 346.4330101 404.72079086 346.4330101 C403.06578934 341.20463141 401.41177515 335.97594173 399.75863266 330.74697495 C399.19737344 328.97215179 398.63585535 327.19741047 398.07406235 325.4227562 C397.2615952 322.85608222 396.44993264 320.28915585 395.63875961 317.7220726 C395.37712021 316.89453476 395.1154808 316.06699692 394.84591293 315.21438217 C393.51980871 311.00871307 392.22325833 306.79766197 390.98250961 302.5658226 C389.9743286 299.16566818 388.77828797 295.93256729 387.34579086 292.6830101 C385.49755589 288.37596254 383.86529684 284.05406864 382.34579086 279.6205101 C377.68139075 266.38291352 371.04630543 253.93617007 364.72079086 241.4330101 C364.39079086 242.4230101 364.06079086 243.4130101 363.72079086 244.4330101 C365.15636745 247.16966468 365.15636745 247.16966468 367.15829086 249.9955101 C370.72079086 255.24514317 370.72079086 255.24514317 370.72079086 257.4330101 C370.06079086 257.4330101 369.40079086 257.4330101 368.72079086 257.4330101 C367.29858215 255.47936035 366.02837659 253.55860805 364.78329086 251.4955101 C364.244785 250.6143956 364.244785 250.6143956 363.69540024 249.7154808 C360.92987221 245.06419249 359.13163762 240.63550753 357.72079086 235.4330101 C358.38079086 235.1030101 359.04079086 234.7730101 359.72079086 234.4330101 C359.03048898 230.90664866 357.61698935 228.0822063 355.90829086 224.9330101 C355.15612289 223.52535385 355.15612289 223.52535385 354.38875961 222.0892601 C352.86438176 219.44162798 352.86438176 219.44162798 350.91219711 217.6283226 C347.64396753 214.3542673 345.13519716 210.57913405 342.47079086 206.8080101 C337.74177169 200.17978912 332.92912773 193.69560247 327.72079086 187.4330101 C330.85335896 192.31029967 334.14749306 197.03510364 337.62289047 201.67226791 C342.01160794 207.54009787 346.1633365 213.4816581 349.97079086 219.7455101 C350.5630748 220.7057811 350.5630748 220.7057811 351.16732407 221.68545151 C352.08555178 223.23001998 352.9129457 224.82794932 353.72079086 226.4330101 C353.39079086 227.0930101 353.06079086 227.7530101 352.72079086 228.4330101 C351.66504868 226.81459213 351.66504868 226.81459213 350.58797836 225.16347885 C339.88443397 208.86652859 328.63668742 193.05895526 315.72079086 178.4330101 C314.97571274 177.58867416 314.23063461 176.74433823 313.46297836 175.87441635 C311.23337463 173.37710034 308.981968 170.90177071 306.72079086 168.4330101 C306.24996078 167.91706284 305.77913071 167.40111557 305.29403305 166.86953354 C297.54456115 158.38249132 289.81155496 149.93937933 281.07235336 142.4486351 C279.30384232 140.9327685 277.55125176 139.39829722 275.80672836 137.8548851 C256.80765661 121.13661771 235.93004013 106.59284955 214.22079086 93.6205101 C213.53283432 93.20567368 212.84487778 92.79083725 212.13607407 92.36343002 C208.61981923 90.30871645 205.6711052 89.21932859 201.72079086 88.4330101 C198.6801178 86.78554348 195.74649315 85.04131973 192.80477524 83.22793198 C189.39317479 81.18834814 187.80482729 80.4330101 183.72079086 80.4330101 C185.70079086 81.4230101 187.68079086 82.4130101 189.72079086 83.4330101 C186.26289812 84.58564102 186.00242723 84.37777406 182.91610336 82.83535385 C181.7281517 82.26180161 181.7281517 82.26180161 180.51620102 81.67666245 C179.63496567 81.24563217 178.75373032 80.8146019 177.84579086 80.3705101 C167.52735868 75.50698903 157.01627956 71.32546415 146.34579086 67.3080101 C145.15286926 66.85876678 145.15286926 66.85876678 143.93584824 66.40044785 C130.64016923 61.41062097 117.25992496 56.72445947 103.72079086 52.4330101 C107.34484486 51.3782517 109.19879622 51.6787073 112.78329086 52.9330101 C116.69963537 54.37411472 116.69963537 54.37411472 120.72079086 53.4330101 C107.47475977 48.53580993 107.47475977 48.53580993 93.72079086 45.4330101 C93.39079086 46.4230101 93.06079086 47.4130101 92.72079086 48.4330101 C94.04079086 48.7630101 95.36079086 49.0930101 96.72079086 49.4330101 C91.03486001 49.56394668 85.78513905 49.12471834 80.18954086 48.15566635 C78.55673628 47.88673809 76.9239235 47.61785953 75.29110336 47.34902573 C72.7682329 46.92570734 70.2458295 46.49975747 67.72372055 46.07192612 C57.70003003 44.38124259 47.89922923 43.07135386 37.73055649 42.73940659 C34.72079086 42.4330101 34.72079086 42.4330101 32.72079086 40.4330101 C28.17434451 39.84857962 23.59885288 39.73546351 19.02010727 39.5802269 C16.75553922 39.49679038 14.49519538 39.3748742 12.23250961 39.25136948 C4.5307703 38.92392825 -1.24337428 39.21243617 -8.02872086 43.27749252 C-11.98494438 45.30882318 -15.97770116 45.0855152 -20.34170914 45.0580101 C-113.98744578 47.07344486 -205.42914513 90.91612196 -273.34170914 153.8080101 C-273.9610231 154.37882309 -274.58033707 154.94963608 -275.21841812 155.53774643 C-282.14655215 161.5730557 -282.14655215 161.5730557 -285.77920914 169.5580101 C-286.27920914 172.4330101 -286.27920914 172.4330101 -288.59170914 174.7455101 C-291.27920914 176.4330101 -291.27920914 176.4330101 -293.16983414 176.6908226 C-296.46547188 177.85039885 -297.68537695 180.20371291 -299.71670914 182.9955101 C-300.60236671 184.19257469 -301.49050477 185.38780701 -302.38077164 186.5814476 C-302.85031265 187.21276596 -303.31985367 187.84408432 -303.8036232 188.49453354 C-305.78997847 191.10400753 -307.8723785 193.62677617 -309.96329117 196.15273666 C-375.91319231 275.84632035 -408.12715565 381.9751253 -399.25918961 484.87881088 C-398.95437603 488.06621918 -398.62210934 491.24948258 -398.27920914 494.4330101 C-398.16093765 495.57415268 -398.04266617 496.71529526 -397.9208107 497.89101791 C-390.0002852 571.79576856 -361.16110425 648.67240399 -312.27920914 705.4330101 C-311.37072251 706.51295379 -310.46323063 707.59373481 -309.55655289 708.6751976 C-298.97779854 721.22940666 -287.98178344 734.12923338 -275.46670914 744.8080101 C-272.4769044 747.38049983 -269.5571102 750.01291125 -266.65420914 752.6830101 C-261.62163998 757.22384731 -256.3458118 761.3864011 -250.99405289 765.53847885 C-247.17758598 768.50010567 -243.41610436 771.5275945 -239.65420914 774.5580101 C-234.3184826 778.84199596 -228.92290651 783.02471846 -223.41983414 787.09316635 C-221.1178208 788.80822355 -218.84161092 790.5422211 -216.57608414 792.30410385 C-202.171482 803.4401344 -186.93418421 812.13152889 -170.27920914 819.4330101 C-169.12888199 819.93848373 -167.97855484 820.44395737 -166.79336929 820.96474838 C-138.28466188 833.4454608 -109.50444608 844.75789097 -79.27920914 852.4330101 C-77.94696304 852.7750145 -77.94696304 852.7750145 -76.58780289 853.12392807 C-63.23031142 856.42933236 -49.76200002 857.15627842 -36.06216812 857.66299057 C-28.97277539 857.94795729 -22.21058942 858.50975784 -15.25967789 859.9720726 C-6.94287096 861.7024919 1.12584129 861.86049057 9.59579086 861.7455101 C10.34246017 861.7395784 11.08912949 861.7336467 11.85842514 861.72753525 C22.01730851 861.64581642 32.07143032 861.41062697 42.12264633 859.83535385 C45.3502279 859.33553667 48.58416316 858.88741711 51.81844711 858.4330101 C75.26616096 855.06868642 98.37224419 850.25446986 121.19271469 843.8548851 C124.54799331 842.9245992 127.20063546 842.4330101 130.72079086 842.4330101 C131.05079086 841.4430101 131.38079086 840.4530101 131.72079086 839.4330101 C133.57625961 838.48379135 133.57625961 838.48379135 135.90829086 837.7455101 C136.66497055 837.49414291 137.42165024 837.24277573 138.20125961 836.98379135 C140.72079086 836.4330101 140.72079086 836.4330101 143.54769516 836.51821518 C146.88206948 836.42867939 148.95540843 835.80977091 152.00985336 834.5189476 C153.01959213 834.09492661 154.0293309 833.67090561 155.06966782 833.23403549 C156.15078842 832.76344711 157.23190903 832.29285873 158.34579086 831.8080101 C159.48298569 831.31873032 160.62018051 830.82945053 161.79183578 830.32534409 C201.1121029 813.15681043 240.84213449 791.70185459 271.72079086 761.4330101 C271.72079086 764.4330101 271.72079086 764.4330101 269.80672836 766.7455101 C262.54913578 773.94035693 254.93334491 780.35391423 246.72079086 786.4330101 C246.07899887 786.90851303 245.43720688 787.38401596 244.77596664 787.87392807 C233.17384157 796.39962421 221.03838878 803.99188057 208.72079086 811.4330101 C207.93140121 811.91028549 207.14201157 812.38756088 206.32870102 812.87929916 C202.13449862 815.411478 197.93215301 817.92948145 193.72079086 820.4330101 C221.68394225 810.0682899 249.47502631 787.82370326 271.72079086 768.4330101 C272.38079086 768.7630101 273.04079086 769.0930101 273.72079086 769.4330101 C253.08961355 789.54367606 228.0032178 805.44606699 202.85848618 819.25771713 C201.43879887 820.0382533 200.0214498 820.82305829 198.60653305 821.61220932 C177.35557189 833.42851825 154.72272705 842.62357225 131.72079086 850.4330101 C130.92978989 850.7030687 130.13878891 850.97312729 129.32381821 851.25136948 C114.48785245 856.26372913 99.28586558 860.26536948 83.94735336 863.4173851 C81.10061489 864.03187791 78.97515909 864.7620643 76.25985336 865.96035385 C71.88687366 867.78001538 67.76948373 868.39531702 63.09579086 868.9955101 C62.30172836 869.10830307 61.50766586 869.22109604 60.68954086 869.33730698 C57.70379716 869.74342257 54.71473564 870.09219143 51.72079086 870.4330101 C51.03268326 870.51466415 50.34457565 870.59631821 49.6356163 870.68044662 C33.57690121 872.55049595 17.56178188 872.85887878 1.40829086 873.0580101 C-1.1939341 873.09630436 -3.79614794 873.13536215 -6.39834976 873.1751976 C-12.6918689 873.26991239 -18.98545824 873.35529812 -25.27920914 873.4330101 C-18.4653478 874.05928576 -11.70903145 874.5859312 -4.86514664 874.5658226 C-3.76524147 874.56807343 -3.76524147 874.56807343 -2.643116 874.57036972 C-0.31342109 874.57268446 2.01611189 874.56654868 4.34579086 874.5580101 C5.14814163 874.55579453 5.9504924 874.55357895 6.77715683 874.55129623 C36.11739617 874.45616995 63.94108706 870.70959377 92.60116196 864.14590073 C95.33177972 863.52190606 98.06617256 862.92040197 100.80282211 862.3236351 C129.88898277 855.75209382 158.79897539 844.18249711 185.58285141 831.23134995 C186.28837143 830.9678978 186.99389145 830.70444565 187.72079086 830.4330101 C188.38079086 830.7630101 189.04079086 831.0930101 189.72079086 831.4330101 C178.79228561 838.07334359 167.44365012 843.35369559 155.72079086 848.4330101 C173.37268667 841.72627918 173.37268667 841.72627918 190.40829086 833.6205101 C191.07078842 833.27254379 191.73328598 832.92457748 192.41585922 832.56606674 C195.98323427 830.61529611 198.87586169 828.43969517 201.95785141 825.76577377 C205.88133603 822.79966069 210.42769447 820.74905026 214.78329086 818.4955101 C243.72408679 803.16247716 268.24554008 782.78320841 291.95516586 760.44472885 C292.67405991 759.7682933 293.39295395 759.09185776 294.13363266 758.39492416 C295.53817547 757.07221332 296.94077004 755.74742982 298.34115219 754.42031479 C298.98334702 753.81477768 299.62554184 753.20924057 300.28719711 752.58535385 C300.85382065 752.04902328 301.42044418 751.51269272 302.00423813 750.96010971 C303.83350185 749.33273884 305.74383052 747.87578835 307.72079086 746.4330101 C306.37604658 749.40121268 304.86638951 751.5732836 302.63094711 753.93691635 C302.0167894 754.58990707 301.40263168 755.2428978 300.76986313 755.91567612 C300.11429428 756.60202133 299.45872543 757.28836655 298.78329086 757.9955101 C298.11031967 758.70570297 297.43734848 759.41589584 296.74398422 760.14760971 C288.72246406 768.58283632 280.68163713 776.98274839 271.72079086 784.4330101 C271.18921371 784.8783812 270.65763657 785.32375229 270.10995102 785.78261948 C254.18360262 799.08828531 237.59686463 810.88908479 219.72079086 821.4330101 C227.94361202 817.65174678 235.41906563 812.91162877 242.90829086 807.8705101 C243.50106827 807.47383133 244.09384567 807.07715256 244.70458603 806.66845322 C254.09761932 800.37376079 263.12206304 793.78334732 271.72079086 786.4330101 C272.47489243 785.80652573 273.22899399 785.18004135 274.00594711 784.5345726 C278.88866282 780.39931039 283.34797079 775.85095837 287.81454086 771.2767601 C289.88088185 769.20571548 292.03154735 767.28585811 294.25594711 765.3861351 C299.72835926 760.64346402 304.8206305 755.51920315 309.93832016 750.40078354 C311.64622142 748.69506412 313.36197131 746.99751983 315.07821274 745.3001976 C321.75905056 738.65309559 327.87066344 731.83145008 333.72079086 724.4330101 C334.5953332 723.39325496 335.47544271 722.35810709 336.36532211 721.3314476 C347.71944764 708.11565465 356.99225637 693.79267155 365.49520493 678.61660385 C366.60897804 676.63222402 367.7348474 674.65566131 368.86922836 672.6830101 C370.17308512 670.41543313 371.47139254 668.14465502 372.76375961 665.8705101 C374.13142149 663.46822976 375.50851616 661.07338082 376.89657211 658.6830101 C387.09610178 641.00987803 394.96927249 622.67981315 401.72079086 603.4330101 C401.95146255 602.78529648 402.18213425 602.13758286 402.41979599 601.47024155 C406.57754326 589.74014232 409.69244759 577.97440477 412.28329086 565.8080101 C412.56935699 564.48173096 412.56935699 564.48173096 412.86120224 563.12865829 C420.69440832 526.71189368 423.69913567 490.61959777 424.72079086 453.4330101 C425.05079086 453.4330101 425.38079086 453.4330101 425.72079086 453.4330101 C427.92969398 465.34490265 428.07899997 477.04454048 428.03329086 489.1205101 C428.03055664 490.61442276 428.03055664 490.61442276 428.02776718 492.13851547 C427.97867234 508.08970081 427.28319358 523.66110888 424.72079086 539.4330101 C424.54918442 540.5153392 424.37757797 541.5976683 424.20077133 542.71279526 C420.34720407 566.44374435 414.4697401 589.57239648 407.09579086 612.4330101 C406.86599533 613.14780533 406.6361998 613.86260056 406.39944077 614.59905624 C403.55917433 623.38748678 400.37655319 631.94608044 396.72079086 640.4330101 C396.13599804 641.87355182 395.55602541 643.31606669 394.98250961 644.7611351 C391.4930795 653.47928189 387.62238649 661.88949811 383.32235336 670.2376976 C381.67300567 673.33905073 381.67300567 673.33905073 380.72079086 676.4330101 C382.37079086 675.7730101 384.02079086 675.1130101 385.72079086 674.4330101 C381.89918898 683.21636028 376.5180484 690.80799331 371.01620102 698.58974838 C369.90520124 700.17060936 368.81656365 701.76714495 367.73250961 703.36660385 C365.04756696 707.32303659 362.30969149 710.94847747 359.03329086 714.4330101 C355.16941907 718.64611646 352.13462343 723.21577389 349.03329086 727.9955101 C341.39061257 739.71493058 332.65768292 750.36693194 323.22079086 760.6830101 C322.74061508 761.20806137 322.2604393 761.73311264 321.76571274 762.27407455 C319.63327682 764.55759551 317.50032112 766.60623633 315.04110336 768.53847885 C312.73391591 770.42229352 311.57416566 771.94412134 310.09579086 774.4955101 C304.29925256 783.52387794 295.93021912 790.5442003 287.52157211 797.06972885 C285.16956915 799.05433387 283.12127526 801.07247402 280.99813461 803.28847885 C276.7329827 807.60370887 272.07080084 810.80692751 266.97079086 814.0580101 C265.10083652 815.2745115 263.23238309 816.49332268 261.36532211 817.7142601 C260.42382309 818.32914291 259.48232407 818.94402573 258.51229477 819.57754135 C254.15705901 822.47239808 249.91482758 825.52087945 245.65829086 828.5580101 C230.5467338 839.23823538 215.00065877 848.28073272 198.00985336 855.60097885 C197.23383774 855.93742416 196.45782211 856.27386948 195.65829086 856.6205101 C195.0279393 856.88218979 194.39758774 857.14386948 193.74813461 857.41347885 C191.57298499 858.44153497 191.57298499 858.44153497 189.23641586 860.2142601 C184.40351048 863.49634723 178.90443564 865.51437747 173.53329086 867.7455101 C171.77855453 868.47725449 171.77855453 868.47725449 169.98836899 869.22378159 C166.57081894 870.6394028 163.14773693 872.04030757 159.72079086 873.4330101 C158.88853989 873.77267807 158.05628891 874.11234604 157.19881821 874.46230698 C134.28314037 883.69118098 109.75937508 890.49754126 85.47713852 894.92715073 C82.73402184 895.43058188 79.9993824 895.96861317 77.26375961 896.5111351 C71.43716508 897.63659192 65.59281209 898.57786138 59.72079086 899.4330101 C58.68406235 899.58544174 57.64733383 899.73787338 56.5791893 899.89492416 C13.77086885 905.80965182 -31.74252181 904.6867064 -74.27920914 897.4330101 C-75.64671806 897.20609741 -77.01423099 896.9792088 -78.3817482 896.75234604 C-148.90468919 884.73317946 -215.90838371 854.29739351 -272.27920914 810.4330101 C-273.18670914 809.72789291 -274.09420914 809.02277573 -275.02920914 808.29629135 C-277.46919777 806.36854392 -279.87979371 804.41100921 -282.27920914 802.4330101 C-283.25889664 801.62734604 -284.23858414 800.82168198 -285.24795914 799.99160385 C-301.58961395 786.42551625 -317.60681262 771.71665832 -331.27920914 755.4330101 C-332.17647414 754.38643082 -333.07503698 753.34096356 -333.97452164 752.29629135 C-336.57265853 749.278527 -339.16042627 746.25206192 -341.74600601 743.22353745 C-343.18354191 741.54473358 -344.62867235 739.87282985 -346.07608414 738.20254135 C-360.02105852 722.03420053 -372.31364065 704.70511233 -382.88125992 686.15395737 C-384.52302081 683.29302305 -386.08257038 680.66793957 -388.20499039 678.13222885 C-391.46233982 673.89338054 -393.67915197 669.12718309 -396.09170914 664.3705101 C-399.31619115 658.08000689 -402.53033578 651.84099558 -406.21670914 645.8080101 C-409.11451609 640.97133231 -411.10249342 636.03447265 -413.02139664 630.74160385 C-414.34594561 627.25746416 -415.86983393 623.9253339 -417.46670914 620.5580101 C-419.5159568 616.2119193 -421.19162168 612.10963618 -422.27920914 607.4330101 C-422.93920914 607.4330101 -423.59920914 607.4330101 -424.27920914 607.4330101 C-449.91181594 533.10636168 -449.91181594 533.10636168 -449.17325211 496.33169174 C-449.12864395 491.45396135 -449.72459629 487.42527425 -451.52530289 482.9017601 C-453.80211664 475.44607982 -453.47157727 467.33954999 -453.46670914 459.6205101 C-453.46735367 458.55534164 -453.4679982 457.49017319 -453.46866226 456.3927269 C-453.42650066 450.13987367 -453.02205974 444.25574079 -451.72452164 438.12441635 C-450.86613393 432.93644156 -451.12704348 427.67427175 -451.27920914 422.4330101 C-451.93920914 423.4230101 -452.59920914 424.4130101 -453.27920914 425.4330101 C-453.41258875 419.11229855 -452.93291109 413.01649588 -452.15420914 406.7455101 C-452.02731705 405.71820786 -451.90042496 404.69090561 -451.76968765 403.63247299 C-450.4768538 393.84450026 -448.48199924 384.23792337 -446.40176773 374.59145737 C-445.12068088 368.62277543 -443.94430743 362.75117495 -443.27920914 356.6830101 C-435.10082807 287.92108777 -396.9584677 219.43735329 -354.27920914 166.4330101 C-353.54444351 165.5151976 -352.80967789 164.5973851 -352.05264664 163.6517601 C-347.61649464 158.16706309 -343.06019069 152.78608914 -338.46670914 147.4330101 C-337.91515152 146.78533676 -337.3635939 146.13766342 -336.79532242 145.47036362 C-334.15738791 142.41695241 -331.67903775 139.6721224 -328.27920914 137.4330101 C-328.27920914 138.4230101 -328.27920914 139.4130101 -328.27920914 140.4330101 C-327.77583023 139.92439438 -327.27245132 139.41577866 -326.75381851 138.89175034 C-324.43168935 136.54860282 -322.10548144 134.20954408 -319.77920914 131.8705101 C-318.98772476 131.07064682 -318.19624039 130.27078354 -317.38077164 129.44668198 C-312.51267059 124.55862969 -307.52098041 119.91547895 -302.27920914 115.4330101 C-301.23085034 114.507605 -300.1838935 113.58060837 -299.13858414 112.6517601 C-289.28692985 103.99582528 -278.86375704 96.16576272 -268.27920914 88.4330101 C-267.54798843 87.89643784 -266.81676773 87.35986557 -266.06338882 86.80703354 C-247.75479012 73.42603913 -228.35013416 61.95522879 -208.27920914 51.4330101 C-207.33207047 50.93414291 -206.38493179 50.43527573 -205.40909195 49.92129135 C-170.18155377 31.48400598 -132.14461338 17.85817568 -93.27920914 9.4330101 C-92.21073746 9.20033432 -91.14226578 8.96765854 -90.04141617 8.72793198 C-82.15624288 7.0528248 -74.24238199 5.68024111 -66.27920914 4.4330101 C-64.46864029 4.13668686 -64.46864029 4.13668686 -62.62149429 3.83437729 C-41.82057934 0.5608785 -21.02176612 0.03687425 0 0 Z " fill="#69AFF0" transform="translate(463.2792091369629,3.5669898986816406)"/>
  <path d="M0 0 C77.22 0 154.44 0 234 0 C231.76406036 12.29766804 231.76406036 12.29766804 230.125 16.375 C228.21476425 21.35853018 226.60800753 26.38476809 225.0625 31.4921875 C223.91742834 35.2726079 222.74341993 39.04316838 221.5625 42.8125 C221.35463867 43.47789795 221.14677734 44.1432959 220.93261719 44.82885742 C219.84196281 48.31903521 218.74530756 51.80720466 217.640625 55.29296875 C217.41818115 55.99768311 217.1957373 56.70239746 216.96655273 57.4284668 C216.3504173 59.37990731 215.73192632 61.33060364 215.11328125 63.28125 C213.95413221 67.15321452 212.98026814 71.07892743 212 75 C173.06 75 134.12 75 94 75 C93.34 80.94 92.68 86.88 92 93 C91.48118314 96.91832309 90.95013134 100.82812053 90.37890625 104.73828125 C90.16076515 106.25677925 90.16076515 106.25677925 89.93821716 107.80595398 C89.48233721 110.97519798 89.02254667 114.14385848 88.5625 117.3125 C88.25949731 119.41337278 87.95676197 121.51428413 87.65429688 123.61523438 C87.05751989 127.75769579 86.4599294 131.90003812 85.86132812 136.04223633 C85.71727539 137.03905426 85.57322266 138.03587219 85.42480469 139.06289673 C85.14829171 140.97470981 84.87145322 142.88647584 84.59423828 144.79818726 C82.61741465 158.43903769 80.78593734 172.09421516 79.046875 185.76733398 C78.72975296 188.25546789 78.40819041 190.74299496 78.0859375 193.23046875 C77.99114105 193.98547165 77.8963446 194.74047455 77.79867554 195.51835632 C77.11349294 200.77301413 77.11349294 200.77301413 76 203 C110.65 203 145.3 203 181 203 C179.79096759 216.29935652 177.81171889 229.3638896 175.67260742 242.53564453 C173.70691554 254.67969905 171.87087407 266.83931853 170 279 C135.35 279 100.7 279 65 279 C64.34 285.93 63.68 292.86 63 300 C62.39969218 304.28964898 61.77602383 308.54443301 61.0625 312.8125 C59.78815422 320.75866069 58.62631865 328.69493261 57.6875 336.6875 C56.1018455 350.05063537 54.03250366 363.34157178 52.02532959 376.64642334 C50.20083716 388.75416071 48.42750123 400.85082032 46.99438477 413.01196289 C46.0068541 421.28530942 44.71792434 429.5046774 43.41601562 437.73364258 C42.30108498 444.84132547 41.33398928 451.94642278 40.59545898 459.10327148 C40.09735641 463.80528719 40.09735641 463.80528719 39 466 C5.01 466 -28.98 466 -64 466 C-64 460.43111086 -63.98725759 455.77830628 -63.23046875 450.41015625 C-63.06538818 449.22317139 -62.90030762 448.03618652 -62.73022461 446.81323242 C-62.55112549 445.57549072 -62.37202637 444.33774902 -62.1875 443.0625 C-61.91401733 441.12370972 -61.91401733 441.12370972 -61.63500977 439.14575195 C-60.560453 431.61349062 -59.38488645 424.10769882 -58.07495117 416.61328125 C-56.84442885 409.41868836 -55.99733669 402.18145149 -55.12255859 394.93652344 C-54.38750166 388.91306076 -53.55357433 382.92385501 -52.5625 376.9375 C-51.23015807 368.83490017 -50.15828909 360.7082708 -49.125 352.5625 C-47.64673354 340.92840684 -46.11183357 329.30389714 -44.5 317.6875 C-44.34050873 316.53760086 -44.34050873 316.53760086 -44.17779541 315.36447144 C-42.86665494 305.93771211 -41.48433282 296.52627712 -40 287.125 C-38.34832464 276.64600956 -36.93011516 266.14396248 -35.5625 255.625 C-35.45793488 254.82092712 -35.35336975 254.01685425 -35.24563599 253.18841553 C-35.08839554 251.97922455 -35.08839554 251.97922455 -34.92797852 250.74560547 C-33.47472723 239.57422731 -31.98524388 228.40870523 -30.4375 217.25 C-30.33318665 216.49749969 -30.22887329 215.74499939 -30.12139893 214.96969604 C-28.66590784 204.49844258 -27.09938681 194.04903282 -25.45117188 183.60620117 C-24.02367104 174.43797594 -22.84257169 165.24299518 -21.68234253 156.03817749 C-20.6407632 147.78359532 -19.50699436 139.56477387 -18.14428711 131.35766602 C-16.70612415 122.51301217 -15.63261979 113.6165442 -14.53320312 104.72460938 C-13.65356162 97.70572718 -12.65980156 90.72467687 -11.53125 83.7421875 C-10.1021945 74.88184174 -8.91682491 66.00238456 -7.80801392 57.09689331 C-7.27868318 52.84887383 -6.73902762 48.60216757 -6.19921875 44.35546875 C-6.09481979 43.53327347 -5.99042084 42.71107819 -5.88285828 41.8639679 C-4.69666273 32.55983681 -3.36620269 23.27912235 -2 14 C-1.34 9.38 -0.68 4.76 0 0 Z " fill="#6BBAF3" transform="translate(208,222)"/>
  <path d="M0 0 C5.40359335 -0.10035245 10.80662129 -0.17215336 16.2109375 -0.21972656 C18.04176301 -0.23959897 19.87252718 -0.26670663 21.703125 -0.30175781 C41.15014921 -0.66425717 58.98537052 1.59738955 73.6796875 15.5546875 C91.17760886 33.99525782 93.22239182 60.52053888 93.125 84.75 C93.12016602 86.02931396 93.11533203 87.30862793 93.11035156 88.62670898 C93.08671605 92.41808173 93.04833399 96.20886679 93 100 C92.98743164 100.99080566 92.97486328 101.98161133 92.96191406 103.00244141 C92.63369209 121.7680302 90.30525734 140.39362025 88 159 C87.87367188 160.02287109 87.74734375 161.04574219 87.6171875 162.09960938 C86.89515219 167.76254911 86.0024577 173.38035242 85 179 C84.73461426 180.53624023 84.73461426 180.53624023 84.46386719 182.10351562 C77.22871894 223.09874184 62.42186117 274.71335506 26.89453125 300.23046875 C9.72651389 311.16302939 -5.33982953 313.3264606 -25.1875 313.125 C-26.91991669 313.11494761 -28.65233904 313.10582576 -30.38476562 313.09765625 C-34.58998586 313.07582749 -38.794929 313.04142299 -43 313 C-41.5836762 298.47289079 -39.97001138 284.05381359 -37.55395508 269.65722656 C-36.15578082 261.23238137 -35.00898681 252.7839546 -33.9375 244.3125 C-33.85281464 243.64427216 -33.76812927 242.97604431 -33.68087769 242.28756714 C-33.26743167 239.02274202 -32.85536884 235.75774404 -32.44384766 232.49267578 C-30.24942911 215.22460555 -27.75027025 197.9937434 -25.33911133 180.75488281 C-24.08661193 171.79860778 -22.8378319 162.84188283 -21.60546875 153.8828125 C-18.00752707 127.75165038 -18.00752707 127.75165038 -16.5 118.625 C-14.88367616 108.80290122 -13.65278086 98.92780788 -12.37014771 89.0579834 C-10.62712727 75.65390608 -8.81181195 62.26135462 -6.9375 48.875 C-6.81102081 47.97155853 -6.68454163 47.06811707 -6.55422974 46.13729858 C-4.39845788 30.75408304 -2.21486489 15.37482066 0 0 Z " fill="#252525" transform="translate(568,298)"/>
  <path d="M0 0 C2.125 0.9375 2.125 0.9375 4 2 C1.70981092 5.43528362 0.96545582 5.614288 -2.828125 6.8046875 C-3.8399585 7.13364014 -4.85179199 7.46259277 -5.89428711 7.80151367 C-7.00167236 8.15576416 -8.10905762 8.51001465 -9.25 8.875 C-64.83375566 27.45205394 -114.475123 58.780869 -158.44921875 97.203125 C-162.10863155 100.39300011 -165.82037096 103.48291808 -169.625 106.5 C-176.2338684 111.8329481 -182.08866186 117.91949797 -188 124 C-188 121 -188 121 -186.65820312 119.30175781 C-186.03880859 118.69170898 -185.41941406 118.08166016 -184.78125 117.453125 C-184.09546875 116.7725 -183.4096875 116.091875 -182.703125 115.390625 C-181.97609375 114.68421875 -181.2490625 113.9778125 -180.5 113.25 C-179.80390625 112.5590625 -179.1078125 111.868125 -178.390625 111.15625 C-174.31745998 107.14342816 -170.13847072 103.29908398 -165.79296875 99.58300781 C-163.95044568 97.95624861 -162.22080634 96.25434027 -160.5 94.5 C-156.83712494 90.78795884 -152.95850906 87.39208825 -149 84 C-147.98018849 83.1162087 -146.96068012 82.23206755 -145.94140625 81.34765625 C-142.31418548 78.20812903 -138.66329205 75.09733656 -135 72 C-134.31180176 71.41750488 -133.62360352 70.83500977 -132.91455078 70.23486328 C-130.80564835 68.45866547 -128.68593807 66.69628224 -126.5625 64.9375 C-125.9128125 64.3894873 -125.263125 63.84147461 -124.59375 63.27685547 C-120.57773807 59.97931385 -116.83264066 58.00377783 -112 56 C-109.26770283 54.35005538 -106.66832985 52.52907366 -104.0625 50.6875 C-102.99938599 49.95055908 -102.99938599 49.95055908 -101.91479492 49.19873047 C-98.44645363 46.7814865 -95.08531961 44.30339725 -91.8125 41.625 C-87.9032976 38.6385707 -83.63164925 37.30226441 -79.03125 35.65625 C-73.93685161 33.68489421 -69.23088427 30.97537007 -64.4375 28.375 C-51.40940876 21.39258198 -37.84541976 16.12258783 -24 11 C-22.88318848 10.58637207 -21.76637695 10.17274414 -20.61572266 9.74658203 C-14.42314942 7.46200594 -8.21945045 5.21035336 -2 3 C-2 2.34 -2 1.68 -2 1 C-1.34 0.67 -0.68 0.34 0 0 Z " fill="#282D30" transform="translate(339,42)"/>
  <path d="M0 0 C4.32972237 0.47233335 8.4592806 1.07503948 12.6875 2.125 C16.98585267 3.12547864 20.00622361 2.99688819 24 1 C26.81937459 1.99172475 29.55336153 3.04792916 32.3125 4.1875 C37.78459272 6.39447962 43.19213957 8.44671708 48.875 10.0625 C55.32507266 11.94411355 61.10295969 14.81241064 67 18 C67 18.66 67 19.32 67 20 C68.24007812 20.38027344 69.48015625 20.76054688 70.7578125 21.15234375 C76.69902452 23.13391133 82.2509575 25.82599339 87.875 28.5625 C88.90625 29.05685547 89.9375 29.55121094 91 30.06054688 C98.56348694 33.70899129 98.56348694 33.70899129 102 36 C102 36.66 102 37.32 102 38 C96.32064477 36.32162338 91.80062243 33.57545164 86.8046875 30.4609375 C83.93580036 28.69201673 83.93580036 28.69201673 80 29 C81.98 29.99 83.96 30.98 86 32 C82.54210725 33.15263092 82.28163637 32.94476396 79.1953125 31.40234375 C78.40334473 31.01997559 77.61137695 30.63760742 76.79541016 30.24365234 C75.9141748 29.81262207 75.03293945 29.3815918 74.125 28.9375 C63.80656782 24.07397893 53.2954887 19.89245405 42.625 15.875 C41.82971893 15.57550446 41.03443787 15.27600891 40.21505737 14.96743774 C26.91937837 9.97761087 13.5391341 5.29144936 0 1 C0 0.67 0 0.34 0 0 Z " fill="#617AE2" transform="translate(567,55)"/>
  <path d="M0 0 C0.495 0.99 0.495 0.99 1 2 C0.34 2.33 -0.32 2.66 -1 3 C-0.505 3.99 -0.505 3.99 0 5 C-0.9701001 5.34144043 -1.9402002 5.68288086 -2.93969727 6.03466797 C-26.85063047 14.47031992 -50.46706699 22.97780246 -72.73999023 35.24658203 C-78.6405301 38.46178518 -84.63382479 40.85634943 -91 43 C-91 42.34 -91 41.68 -91 41 C-91.66 40.67 -92.32 40.34 -93 40 C-91.54806462 39.07323274 -90.0879504 38.15927994 -88.625 37.25 C-87.81289062 36.73953125 -87.00078125 36.2290625 -86.1640625 35.703125 C-83.58909728 34.31709434 -81.16250359 33.23432118 -78.44921875 32.1796875 C-72.19903107 29.7449129 -66.21294374 26.81441528 -60.1875 23.875 C-57.99421169 22.80840965 -55.80022689 21.74325005 -53.60546875 20.6796875 C-52.64793701 20.21288574 -51.69040527 19.74608398 -50.70385742 19.26513672 C-43.31737958 15.80899874 -43.31737958 15.80899874 -39 17 C-38.34 16.34 -37.68 15.68 -37 15 C-37 14.34 -37 13.68 -37 13 C-33.33943725 11.6266148 -29.67726884 10.25760523 -26.01367188 8.89233398 C-24.16713985 8.20322618 -22.32183578 7.51083077 -20.4765625 6.81835938 C-13.71133687 4.29978353 -6.95236782 1.94838954 0 0 Z " fill="#64A8DF" transform="translate(340,40)"/>
  <path d="M0 0 C4.8858408 4.10061638 9.50869971 8.34762501 14 12.875 C14.92389526 13.80397095 14.92389526 13.80397095 15.86645508 14.75170898 C20.09374189 19.02721793 24.13558442 23.39307662 28 28 C28.92849109 29.06614729 29.8583024 30.13114551 30.7890625 31.1953125 C31.79722158 32.35907485 32.80503271 33.52313872 33.8125 34.6875 C34.53409302 35.5084314 34.53409302 35.5084314 35.27026367 36.34594727 C37.22175904 38.62263409 38.85636496 40.63786866 39.96777344 43.43994141 C41.00502339 46.01245866 42.18204163 47.82463693 43.87109375 50.01171875 C44.72562134 51.13622437 44.72562134 51.13622437 45.59741211 52.28344727 C46.20464111 53.07678467 46.81187012 53.87012207 47.4375 54.6875 C52.40673902 61.3047504 57.1013655 68.01224257 61.4375 75.0625 C61.91566162 75.82973389 62.39382324 76.59696777 62.88647461 77.38745117 C63.99252853 79.21880001 65.00664739 81.10515319 66 83 C65.67 83.66 65.34 84.32 65 85 C64.29617188 83.92105469 63.59234375 82.84210938 62.8671875 81.73046875 C52.1636431 65.43351849 40.91589655 49.62594516 28 35 C27.25492188 34.15566406 26.50984375 33.31132812 25.7421875 32.44140625 C22.4932284 28.80233915 19.19693315 25.20885239 15.87890625 21.6328125 C15.33999756 21.05144531 14.80108887 20.47007812 14.24584961 19.87109375 C13.19011162 18.73377817 12.13242635 17.59826611 11.07250977 16.46484375 C7.41960408 12.53607548 4.27913007 8.86214415 2 4 C1.33529628 2.665687 0.66888611 1.3322213 0 0 Z " fill="#4C4FA3" transform="translate(751,147)"/>
  <path d="M0 0 C0.33 0 0.66 0 1 0 C1.556875 1.794375 1.556875 1.794375 2.125 3.625 C3.48575624 7.75241229 5.15830311 11.66121959 6.9375 15.625 C9.57066374 21.65852087 11.40412129 27.62477147 12.9453125 34.0390625 C13.75886633 37.31412706 14.83381333 40.46145858 15.94140625 43.6484375 C18.09317786 50.01318285 19.52739576 56.41235796 20.8125 63 C21.04130859 64.10472656 21.27011719 65.20945312 21.50585938 66.34765625 C21.82200195 67.93900391 21.82200195 67.93900391 22.14453125 69.5625 C22.33378174 70.51253906 22.52303223 71.46257812 22.71801758 72.44140625 C22.99648602 74.96811561 22.79719119 76.60877808 22 79 C19.13144117 73.39327137 18.32208748 68.13536697 17.625 61.890625 C17.30576761 59.022079 17.30576761 59.022079 15.6027832 57.77880859 C13.21968249 55.13398425 12.62135177 52.01412531 11.73046875 48.6484375 C11.52698318 47.91613922 11.32349762 47.18384094 11.11384583 46.42935181 C10.46223587 44.08039536 9.82384131 41.72813463 9.1875 39.375 C8.35526265 36.31817181 7.51508345 33.26367569 6.66796875 30.2109375 C6.46001678 29.45431824 6.25206482 28.69769897 6.03781128 27.91815186 C4.27218321 21.63452196 2.12008119 15.52083021 -0.30610657 9.46151733 C-2.17978779 4.52938965 -2.17978779 4.52938965 -1.15942383 1.52490234 C-0.77681396 1.02168457 -0.3942041 0.5184668 0 0 Z " fill="#5F53E2" transform="translate(876,290)"/>
  <path d="M0 0 C-2.52675155 2.52675155 -3.962667 2.50986146 -7.46875 3.03515625 C-8.58693115 3.2043457 -9.7051123 3.37353516 -10.85717773 3.54785156 C-12.66037476 3.80260254 -12.66037476 3.80260254 -14.5 4.0625 C-15.73886963 4.2387793 -16.97773926 4.41505859 -18.25415039 4.59667969 C-27.85583786 5.91949827 -37.30806719 6.86099602 -47 7 C-48.97661621 7.0306958 -48.97661621 7.0306958 -50.99316406 7.06201172 C-54.88504217 7.11665851 -58.77678523 7.15060962 -62.66897583 7.17321777 C-64.23350787 7.18255338 -65.79802744 7.19440957 -67.36251831 7.20910645 C-78.39049361 7.29911735 -89.07746444 6.52409481 -100 5 C-100 4.67 -100 4.34 -100 4 C-98.9436158 3.99120064 -98.9436158 3.99120064 -97.8658905 3.98222351 C-91.0899727 3.92329361 -84.31431051 3.85069231 -77.53869152 3.76428509 C-74.05877861 3.72034757 -70.57896263 3.68094695 -67.09887695 3.65356445 C-47.75190604 3.496899 -28.75959991 2.29702023 -9.56918335 -0.3331604 C-3.17035744 -1.18888404 -3.17035744 -1.18888404 0 0 Z " fill="#2D333F" transform="translate(533,872)"/>
  <path d="M0 0 C1.85625 0.0309375 1.85625 0.0309375 3.75 0.0625 C3.75 0.7225 3.75 1.3825 3.75 2.0625 C6.39 2.0625 9.03 2.0625 11.75 2.0625 C12.08 1.4025 12.41 0.7425 12.75 0.0625 C14.008125 0.041875 15.26625 0.02125 16.5625 0 C17.27019531 -0.01160156 17.97789062 -0.02320312 18.70703125 -0.03515625 C20.75 0.0625 20.75 0.0625 23.75 1.0625 C25.64952346 0.97728259 27.54663573 0.82520916 29.4375 0.625 C30.43136719 0.52316406 31.42523438 0.42132813 32.44921875 0.31640625 C33.20847656 0.23261719 33.96773438 0.14882813 34.75 0.0625 C34.42 0.7225 34.09 1.3825 33.75 2.0625 C31.81420898 2.4855957 31.81420898 2.4855957 29.24609375 2.73828125 C27.81040039 2.8933313 27.81040039 2.8933313 26.34570312 3.05151367 C25.30349609 3.15826416 24.26128906 3.26501465 23.1875 3.375 C13.22615875 4.4862463 3.5370909 6.18520312 -6.22875977 8.43676758 C-11.71963113 9.67194162 -16.61989854 10.30815301 -22.25 10.0625 C-15.85236406 4.49036547 -8.67405543 -0.14456759 0 0 Z " fill="#5B8DC7" transform="translate(373.25,31.9375)"/>
  <path d="M0 0 C0.99 0.495 0.99 0.495 2 1 C-22.28049924 24.66791784 -52.56919245 43.30330317 -83 58 C-83.33 56.68 -83.66 55.36 -84 54 C-83.45327637 53.83636963 -82.90655273 53.67273926 -82.34326172 53.50415039 C-76.57700113 51.6925825 -71.40200624 49.3706346 -66.125 46.4375 C-65.2805835 45.96916748 -64.43616699 45.50083496 -63.56616211 45.01831055 C-41.08626845 32.26927341 -19.46981784 16.97101769 0 0 Z " fill="#5F6CDD" transform="translate(735,772)"/>
  <path d="M0 0 C-27.36812257 11.65016395 -55.41523767 20.1748975 -84.8125 24.8125 C-85.59455811 24.93681396 -86.37661621 25.06112793 -87.18237305 25.18920898 C-92.81015948 26.00646723 -98.31852433 26.12721387 -104 26 C-104 25.67 -104 25.34 -104 25 C-102.60599976 24.77449463 -102.60599976 24.77449463 -101.18383789 24.54443359 C-71.73696419 19.75408792 -43.73773169 13.26785252 -15.484375 3.609375 C-14.80215378 3.37624603 -14.11993256 3.14311707 -13.41703796 2.90292358 C-10.63642245 1.94400624 -7.91238944 0.96137996 -5.21972656 -0.22558594 C-3 -1 -3 -1 0 0 Z " fill="#303749" transform="translate(620,858)"/>
  <path d="M0 0 C0.99 0.495 0.99 0.495 2 1 C0.62087933 4.23844751 -0.82108429 5.92212462 -3.6484375 7.99609375 C-4.39593262 8.54797363 -5.14342773 9.09985352 -5.91357422 9.66845703 C-6.72584473 10.25224121 -7.53811523 10.83602539 -8.375 11.4375 C-9.2220752 12.05222168 -10.06915039 12.66694336 -10.94189453 13.30029297 C-26.06113833 24.17133827 -41.77869893 33.83424021 -58.04907227 42.87768555 C-59.74027969 43.85059013 -61.3766006 44.91773373 -63 46 C-65.1875 45.625 -65.1875 45.625 -67 45 C-66.29206299 44.58862793 -65.58412598 44.17725586 -64.85473633 43.75341797 C-42.3384872 30.63394287 -19.57762012 17.35289056 0 0 Z " fill="#292A33" transform="translate(722,779)"/>
  <path d="M0 0 C0 3 0 3 -1.9140625 5.3125 C-19.09227403 22.34219673 -39.27425294 35.68575496 -60 48 C-60 45 -60 45 -58.76367188 43.4777832 C-56.85519759 41.87866985 -54.92429062 40.6237752 -52.78125 39.35546875 C-51.94078125 38.85063965 -51.1003125 38.34581055 -50.234375 37.82568359 C-49.33203125 37.28508301 -48.4296875 36.74448242 -47.5 36.1875 C-30.6296997 25.90279172 -13.84536325 14.20540816 0 0 Z " fill="#616FE2" transform="translate(735,765)"/>
  <path d="M0 0 C0.495 1.485 0.495 1.485 1 3 C-7.15008252 11.51023346 -15.46197213 19.0876885 -25 26 C-26.08760314 26.80549893 -27.17484075 27.61149164 -28.26171875 28.41796875 C-37.83974169 35.45428273 -47.85997026 41.80836226 -58 48 C-59.01537842 48.63083496 -59.01537842 48.63083496 -60.05126953 49.27441406 C-61.66402058 50.24681421 -63.32816045 51.13312024 -65 52 C-65.66 51.67 -66.32 51.34 -67 51 C-66.52393311 50.7097998 -66.04786621 50.41959961 -65.55737305 50.12060547 C-45.9015186 38.07702548 -27.42840041 24.68131573 -10.37109375 9.15234375 C-6.95651889 6.05278733 -3.48125893 3.02422215 0 0 Z " fill="#282931" transform="translate(749,774)"/>
  <path d="M0 0 C-2.26929635 3.40394453 -3.17405806 3.70795089 -6.90234375 5.04296875 C-7.87494141 5.39423828 -8.84753906 5.74550781 -9.84960938 6.10742188 C-11.37811523 6.64206055 -11.37811523 6.64206055 -12.9375 7.1875 C-13.95263672 7.55552734 -14.96777344 7.92355469 -16.01367188 8.30273438 C-23.57502319 11 -23.57502319 11 -27 11 C-27 11.66 -27 12.32 -27 13 C-26.01 13.33 -25.02 13.66 -24 14 C-25.98 14.66 -27.96 15.32 -30 16 C-30 15.34 -30 14.68 -30 14 C-41.36940679 18.73133655 -52.59880649 23.57541718 -63.48779297 29.34350586 C-65.2971856 30.2849157 -67.14559426 31.15068644 -69 32 C-69.66 31.67 -70.32 31.34 -71 31 C-52.82367828 20.5389709 -34.17982217 11.4782238 -14.6875 3.75 C-14.06546692 3.50122101 -13.44343384 3.25244202 -12.80255127 2.99612427 C-11.04259644 2.29545397 -9.27726388 1.60833713 -7.51171875 0.921875 C-6.49553467 0.52581055 -5.47935059 0.12974609 -4.43237305 -0.27832031 C-2 -1 -2 -1 0 0 Z " fill="#2B3237" transform="translate(330,42)"/>
  <path d="M0 0 C0 3.65971276 -0.65286358 4.05726308 -3.11328125 6.625 C-3.77908203 7.32641113 -4.44488281 8.02782227 -5.13085938 8.75048828 C-6.21077148 9.86399658 -6.21077148 9.86399658 -7.3125 11 C-8.04146484 11.7616748 -8.77042969 12.52334961 -9.52148438 13.30810547 C-11.67175885 15.54789577 -13.83325984 17.77614558 -16 20 C-16.56380371 20.58040039 -17.12760742 21.16080078 -17.70849609 21.75878906 C-25.96739064 30.23230358 -34.59207018 37.83516456 -44 45 C-44 40.37286109 -41.12123948 38.21460989 -38 35 C-35.3991851 32.58813319 -32.69926246 30.30045251 -30 28 C-19.7457745 18.98303023 -9.61286909 9.69963783 0 0 Z " fill="#5F65DF" transform="translate(770,750)"/>
  <path d="M0 0 C4.32972237 0.47233335 8.4592806 1.07503948 12.6875 2.125 C16.98585267 3.12547864 20.00622361 2.99688819 24 1 C27.59110197 1.96963057 31.03154077 3.41210027 34.5 4.75 C35.47582031 5.1109375 36.45164062 5.471875 37.45703125 5.84375 C38.38902344 6.19953125 39.32101562 6.5553125 40.28125 6.921875 C41.56612305 7.41059082 41.56612305 7.41059082 42.87695312 7.90917969 C45 9 45 9 47 12 C43 10.66666667 39 9.33333333 35 8 C35.495 9.485 35.495 9.485 36 11 C27.81285096 10.51424682 20.65405815 8.11634767 12.9375 5.4375 C11.69033203 5.01275391 10.44316406 4.58800781 9.15820312 4.15039062 C6.1025639 3.10842936 3.05006817 2.05813487 0 1 C0 0.67 0 0.34 0 0 Z " fill="#4E61A7" transform="translate(567,55)"/>
  <path d="M0 0 C2.125 0.9375 2.125 0.9375 4 2 C1.70981092 5.43528362 0.96545582 5.614288 -2.828125 6.8046875 C-4.34913818 7.29980835 -4.34913818 7.29980835 -5.90087891 7.80493164 C-7.55869385 8.33461548 -7.55869385 8.33461548 -9.25 8.875 C-19.96618484 12.42246343 -30.2993284 16.52073386 -40.625 21.0625 C-41.29664185 21.35775574 -41.96828369 21.65301147 -42.66027832 21.95721436 C-46.44610735 23.62500041 -50.22561312 25.3064456 -54 27 C-54.33 26.34 -54.66 25.68 -55 25 C-52.49968064 22.0601693 -49.92447118 20.96503029 -46.35546875 19.58203125 C-45.21303711 19.13577393 -44.07060547 18.6895166 -42.89355469 18.22973633 C-41.67055664 17.76204834 -40.44755859 17.29436035 -39.1875 16.8125 C-37.92984494 16.32554782 -36.67235918 15.83815817 -35.41503906 15.3503418 C-24.33766914 11.06828635 -13.19029706 6.97696081 -2 3 C-2 2.34 -2 1.68 -2 1 C-1.34 0.67 -0.68 0.34 0 0 Z " fill="#2A3035" transform="translate(339,42)"/>
  <path d="M0 0 C7.34898858 7.19508306 13.55711863 15.239667 19.5625 23.5625 C20.22511841 24.4740686 20.22511841 24.4740686 20.90112305 25.40405273 C24 29.75751578 24 29.75751578 24 32 C25.485 32.495 25.485 32.495 27 33 C28.859375 35.546875 28.859375 35.546875 30.75 38.75 C31.38421875 39.79671875 32.0184375 40.8434375 32.671875 41.921875 C34.11350928 45.26307444 34.13056905 46.60829284 33 50 C30.30327815 49.01120199 29.21441825 48.44144934 27.9375 45.8125 C27.4734375 44.4203125 27.4734375 44.4203125 27 43 C21.80341413 29.71453888 12.34580065 18.13607457 3.65795898 6.95019531 C0 2.20387229 0 2.20387229 0 0 Z " fill="#2F2F47" transform="translate(790,190)"/>
  <path d="M0 0 C10.8029818 -0.34910893 21.28712612 0.73300752 32 2 C30.68 2.33 29.36 2.66 28 3 C28.95865509 5.33075929 28.95865509 5.33075929 32 7 C30.37536158 7.05395478 28.75021459 7.09277195 27.125 7.125 C25.76761719 7.15980469 25.76761719 7.15980469 24.3828125 7.1953125 C22 7 22 7 20 5 C17.6754661 4.62948007 17.6754661 4.62948007 14.9921875 4.5859375 C14.00605469 4.54726563 13.01992188 4.50859375 12.00390625 4.46875 C10.97136719 4.4378125 9.93882812 4.406875 8.875 4.375 C7.83472656 4.33632813 6.79445313 4.29765625 5.72265625 4.2578125 C3.14861689 4.16335234 0.57458845 4.07778786 -2 4 C-1.34 3.67 -0.68 3.34 0 3 C0 2.01 0 1.02 0 0 Z " fill="#4F6CA6" transform="translate(476,39)"/>
  <path d="M0 0 C1.03189453 0.00141495 2.06378906 0.0028299 3.12695312 0.00428772 C6.39716589 0.00984983 9.6673082 0.02239523 12.9375 0.03515625 C15.16536359 0.04017615 17.39322826 0.0447382 19.62109375 0.04882812 C25.05991955 0.05980683 30.49870474 0.07650687 35.9375 0.09765625 C35.9375 0.42765625 35.9375 0.75765625 35.9375 1.09765625 C27.3575 1.42765625 18.7775 1.75765625 9.9375 2.09765625 C9.9375 2.42765625 9.9375 2.75765625 9.9375 3.09765625 C-1.41679868 4.04809082 -12.67326383 4.20799331 -24.0625 4.09765625 C-23.423125 3.78828125 -22.78375 3.47890625 -22.125 3.16015625 C-20.12639179 2.26313995 -20.12639179 2.26313995 -19.0625 1.09765625 C-12.69102845 0.04604967 -6.44605506 -0.03371574 0 0 Z " fill="#5072AA" transform="translate(445.0625,27.90234375)"/>
  <path d="M0 0 C0.66 0.33 1.32 0.66 2 1 C-6.154424 6.02970354 -14.43958186 10.23617248 -23.25 14 C-24.17901123 14.39759521 -25.10802246 14.79519043 -26.06518555 15.20483398 C-32.72195628 18 -32.72195628 18 -35 18 C-35 18.66 -35 19.32 -35 20 C-36.65 20.33 -38.3 20.66 -40 21 C-39.360625 20.7525 -38.72125 20.505 -38.0625 20.25 C-37.381875 19.8375 -36.70125 19.425 -36 19 C-35.90525391 18.36900391 -35.81050781 17.73800781 -35.71289062 17.08789062 C-35 15 -35 15 -32.64257812 13.59960938 C-31.61583984 13.18517578 -30.58910156 12.77074219 -29.53125 12.34375 C-28.40203125 11.87839844 -27.2728125 11.41304687 -26.109375 10.93359375 C-24.91828125 10.46050781 -23.7271875 9.98742187 -22.5 9.5 C-20.1768445 8.55266881 -17.85392341 7.60476256 -15.53125 6.65625 C-14.4175 6.20894531 -13.30375 5.76164063 -12.15625 5.30078125 C-8.61125112 3.83978543 -5.1419775 2.25060912 -1.68945312 0.58398438 C-0.85317383 0.29491211 -0.85317383 0.29491211 0 0 Z " fill="#5D71D6" transform="translate(651,834)"/>
  <path d="M0 0 C3.46007409 4.37321864 5.62802437 9.16798097 8 14.1875 C8.43828125 15.09564453 8.8765625 16.00378906 9.328125 16.93945312 C11.9804039 22.51962424 14.21108538 28.08512833 16 34 C15.34 34.66 14.68 35.32 14 36 C12.01990945 31.80292406 10.04454402 27.60366935 8.07348633 23.40234375 C7.4025746 21.9740033 6.73038541 20.54626216 6.05688477 19.11914062 C5.08792429 17.06537349 4.12360842 15.00948082 3.16015625 12.953125 C2.85908463 12.31755676 2.558013 11.68198853 2.24781799 11.02716064 C-0.57783859 4.97359673 -0.57783859 4.97359673 -1 2 C-0.67 1.34 -0.34 0.68 0 0 Z " fill="#5B52D7" transform="translate(856,253)"/>
  <path d="M0 0 C11.88458337 4.37011586 22.89860712 9.93553347 34 16 C34 16.66 34 17.32 34 18 C28.32064477 16.32162338 23.80062243 13.57545164 18.8046875 10.4609375 C15.93580036 8.69201673 15.93580036 8.69201673 12 9 C13.98 9.99 15.96 10.98 18 12 C15 13 15 13 12.95703125 12.22265625 C12.24933594 11.83980469 11.54164063 11.45695312 10.8125 11.0625 C10.09707031 10.68222656 9.38164063 10.30195312 8.64453125 9.91015625 C8.10183594 9.60980469 7.55914063 9.30945313 7 9 C7 8.34 7 7.68 7 7 C5.68 6.34 4.36 5.68 3 5 C3.33 4.67 3.66 4.34 4 4 C1.525 3.01 1.525 3.01 -1 2 C-0.67 1.34 -0.34 0.68 0 0 Z " fill="#4E5DA7" transform="translate(635,75)"/>
  <path d="M0 0 C0 3.47000194 -0.58785256 4.18558276 -2.5703125 6.9296875 C-3.13089355 7.71569336 -3.69147461 8.50169922 -4.26904297 9.31152344 C-5.1877417 10.58044434 -5.1877417 10.58044434 -6.125 11.875 C-11.50313712 19.41861468 -16.75398159 27.02930463 -21.875 34.75 C-22.48746582 35.67280762 -23.09993164 36.59561523 -23.73095703 37.54638672 C-25.15591494 39.69631602 -26.57907693 41.84740272 -28 44 C-28.33 43.34 -28.66 42.68 -29 42 C-27.85195807 39.71938841 -26.65203595 37.60365793 -25.3125 35.4375 C-24.91039307 34.77854736 -24.50828613 34.11959473 -24.09399414 33.44067383 C-16.85779218 21.75943511 -8.80957633 10.54558107 0 0 Z " fill="#2D383F" transform="translate(131,187)"/>
  <path d="M0 0 C0.33 0 0.66 0 1 0 C1.02477942 5.87157893 1.04289766 11.74312718 1.05493164 17.61474609 C1.05995022 19.61084524 1.06676651 21.60694073 1.07543945 23.60302734 C1.08761356 26.47754826 1.09325316 29.35202044 1.09765625 32.2265625 C1.10281754 33.11429352 1.10797882 34.00202454 1.11329651 34.91665649 C1.11369908 39.39600242 0.9115053 43.59071138 0 48 C-0.33 48 -0.66 48 -1 48 C-1.33 34.8 -1.66 21.6 -2 8 C-1.67 8 -1.34 8 -1 8 C-0.67 5.36 -0.34 2.72 0 0 Z " fill="#5D52DC" transform="translate(883,406)"/>
  <path d="M0 0 C-11.36513254 4.75599047 -22.83144948 9.10396169 -34.5 13.0625 C-35.67473877 13.46847412 -36.84947754 13.87444824 -38.05981445 14.29272461 C-39.16413818 14.66147705 -40.26846191 15.03022949 -41.40625 15.41015625 C-42.38916016 15.74152588 -43.37207031 16.07289551 -44.38476562 16.41430664 C-47.06347264 17.01421498 -48.45185473 16.92539891 -51 16 C-44.88280027 12.99701104 -38.71106803 10.97819435 -32.16772461 9.15112305 C-24.70073011 7.01595967 -17.46439783 4.30335331 -10.22387695 1.50292969 C-9.32757568 1.16422852 -8.43127441 0.82552734 -7.5078125 0.4765625 C-6.31115967 0.0137085 -6.31115967 0.0137085 -5.09033203 -0.45849609 C-3 -1 -3 -1 0 0 Z " fill="#2C2F3D" transform="translate(620,858)"/>
  <path d="M0 0 C0 3 0 3 -1.9140625 5.3125 C-11.36617524 14.68289419 -21.45007372 23.30104276 -33 30 C-31.64300073 25.04476397 -28.80190296 23.06378389 -24.6875 20.375 C-19.53028475 16.85572169 -14.62386691 13.18056663 -9.875 9.125 C-9.34350342 8.67302246 -8.81200684 8.22104492 -8.2644043 7.75537109 C-5.38868646 5.28045499 -2.64440208 2.72031792 0 0 Z " fill="#5F68DD" transform="translate(735,765)"/>
  <path d="M0 0 C0.99 0.495 0.99 0.495 2 1 C1.01 1.495 1.01 1.495 0 2 C0 1.34 0 0.68 0 0 Z M-3 3 C-2.34 3.33 -1.68 3.66 -1 4 C-1 4.66 -1 5.32 -1 6 C-9.50759492 10.14850544 -18.0305292 14.17704681 -26.875 17.5625 C-27.54595703 17.82562988 -28.21691406 18.08875977 -28.90820312 18.35986328 C-33.63615597 20.12128134 -33.63615597 20.12128134 -37 19 C-36.28980713 18.69296143 -35.57961426 18.38592285 -34.84790039 18.06958008 C-31.5840224 16.65529492 -28.32326288 15.23395176 -25.0625 13.8125 C-23.94552734 13.32974609 -22.82855469 12.84699219 -21.67773438 12.34960938 C-15.81113478 9.78619782 -10.1754683 7.12669548 -4.70483398 3.79174805 C-4.14223877 3.53047119 -3.57964355 3.26919434 -3 3 Z " fill="#2A2C36" transform="translate(653,833)"/>
  <path d="M0 0 C0.99 0.33 1.98 0.66 3 1 C-0.47447577 4.85155066 -4.46920775 7.43328842 -8.8125 10.1875 C-9.5557251 10.66219727 -10.2989502 11.13689453 -11.06469727 11.62597656 C-13.37125544 13.09243004 -15.68435674 14.54794161 -18 16 C-18.73508789 16.46293457 -19.47017578 16.92586914 -20.22753906 17.40283203 C-22.2909195 18.69630137 -24.36199942 19.97608968 -26.4375 21.25 C-27.06954346 21.64469482 -27.70158691 22.03938965 -28.3527832 22.44604492 C-29.86522513 23.36086034 -31.4289485 24.18995988 -33 25 C-33.66 24.67 -34.32 24.34 -35 24 C-34.26233398 23.54898926 -34.26233398 23.54898926 -33.50976562 23.08886719 C-23.63442631 17.02337326 -14.03152222 10.8421012 -4.99023438 3.57128906 C-3.38193897 2.3073878 -1.69639068 1.14294322 0 0 Z " fill="#323550" transform="translate(717,801)"/>
  <path d="M0 0 C3.86782101 3.68695169 7.10912239 7.55714248 10.25 11.875 C10.72018555 12.51977295 11.19037109 13.1645459 11.67480469 13.82885742 C15.05939489 18.54050327 18.23121611 23.35893908 21.25 28.3125 C21.64477539 28.9523584 22.03955078 29.5922168 22.44628906 30.25146484 C23.36446954 31.79643975 24.19200862 33.3946487 25 35 C24.67 35.66 24.34 36.32 24 37 C23.69932617 36.53851563 23.39865234 36.07703125 23.08886719 35.6015625 C16.92002292 26.16411669 10.63532202 16.90572687 3.65917969 8.04101562 C0 3.31426842 0 3.31426842 0 0 Z " fill="#5C5BD8" transform="translate(792,195)"/>
  <path d="M0 0 C2.49124265 2.16629796 3.59924482 3.69376977 4 7 C3.76925781 7.58652344 3.53851562 8.17304688 3.30078125 8.77734375 C2.83804995 12.19674774 4.51862933 13.84955743 6.4375 16.625 C10 21.8258317 10 21.8258317 10 24 C9.34 24 8.68 24 8 24 C6.57779129 22.04635024 5.30758573 20.12559795 4.0625 18.0625 C3.70349609 17.47509033 3.34449219 16.88768066 2.97460938 16.2824707 C0.20908134 11.63118239 -1.58915324 7.20249743 -3 2 C-2.01 1.34 -1.02 0.68 0 0 Z " fill="#5C58D8" transform="translate(824,237)"/>
  <path d="M0 0 C5.93714485 -0.67424989 9.4716114 1.54732658 14.375 4.5 C15.11105469 4.92925781 15.84710937 5.35851562 16.60546875 5.80078125 C18.41044544 6.85563776 20.20618718 7.92626881 22 9 C21.67 10.32 21.34 11.64 21 13 C16.71 10.69 12.42 8.38 8 6 C8 5.34 8 4.68 8 4 C7.05125 3.71125 6.1025 3.4225 5.125 3.125 C2 2 2 2 0 0 Z " fill="#2F3347" transform="translate(645,83)"/>
  <path d="M0 0 C0.33 0 0.66 0 1 0 C1.86832448 4.0804554 2.71719228 8.1647197 3.5625 12.25 C3.80935547 13.40886719 4.05621094 14.56773437 4.31054688 15.76171875 C4.53935547 16.87675781 4.76816406 17.99179687 5.00390625 19.140625 C5.21861572 20.16704102 5.4333252 21.19345703 5.65454102 22.25097656 C5.98656338 24.8930768 5.85728404 26.50892539 5 29 C2.11439692 23.35995762 1.24320936 17.96085809 0.4296875 11.6953125 C0.28454961 9.08889375 0.28454961 9.08889375 -1 8 C-1.125 4.5 -1.125 4.5 -1 1 C-0.67 0.67 -0.34 0.34 0 0 Z " fill="#544CBF" transform="translate(893,340)"/>
  <path d="M0 0 C0 0.33 0 0.66 0 1 C2.475 1.495 2.475 1.495 5 2 C4.34 2.66 3.68 3.32 3 4 C0.27130593 3.96712417 -2.2966618 3.43602229 -5 3 C-5.33 3.99 -5.66 4.98 -6 6 C-8.64 5.67 -11.28 5.34 -14 5 C-14 4.34 -14 3.68 -14 3 C-14.99 2.67 -15.98 2.34 -17 2 C-5.47835991 -0.29612756 -5.47835991 -0.29612756 0 0 Z " fill="#5C8ECE" transform="translate(391,29)"/>
  <path d="M0 0 C1.258125 -0.020625 2.51625 -0.04125 3.8125 -0.0625 C4.52019531 -0.07410156 5.22789062 -0.08570312 5.95703125 -0.09765625 C8 0 8 0 11 1 C12.89952346 0.91478259 14.79663573 0.76270916 16.6875 0.5625 C17.68136719 0.46066406 18.67523438 0.35882813 19.69921875 0.25390625 C20.45847656 0.17011719 21.21773438 0.08632813 22 0 C21.67 0.66 21.34 1.32 21 2 C18.77856445 2.50244141 18.77856445 2.50244141 15.86328125 2.8515625 C14.81076172 2.98046875 13.75824219 3.109375 12.67382812 3.2421875 C11.56458984 3.36851563 10.45535156 3.49484375 9.3125 3.625 C7.67764648 3.82609375 7.67764648 3.82609375 6.00976562 4.03125 C0.96728537 4.63278751 -3.91556657 5.07059752 -9 5 C-5.86501708 3.14223235 -3.62528568 2.79859524 0 3 C0 2.01 0 1.02 0 0 Z " fill="#2E3743" transform="translate(386,32)"/>
  <path d="M0 0 C6.5368431 0.6229227 12.57685237 2.10858109 18.875 3.9375 C19.82375 4.20240234 20.7725 4.46730469 21.75 4.74023438 C22.65492188 4.99998047 23.55984375 5.25972656 24.4921875 5.52734375 C25.31058105 5.76187256 26.12897461 5.99640137 26.97216797 6.23803711 C29 7 29 7 31 9 C23.9835307 9.64426691 18.12017588 7.3039431 11.5625 5 C9.8928418 4.42765625 9.8928418 4.42765625 8.18945312 3.84375 C5.45620762 2.90529661 2.72673432 1.95717316 0 1 C0 0.67 0 0.34 0 0 Z " fill="#4B5F9E" transform="translate(567,55)"/>
  <path d="M0 0 C0.33 0.66 0.66 1.32 1 2 C0.06553465 4.03144641 -0.93224776 6.03533587 -2 8 C-2.66 8 -3.32 8 -4 8 C-4.226875 8.5775 -4.45375 9.155 -4.6875 9.75 C-6.33038023 12.5663661 -8.39533227 14.08077114 -11 16 C-11.66 15.34 -12.32 14.68 -13 14 C-8.71 9.38 -4.42 4.76 0 0 Z " fill="#5FB0CF" transform="translate(134,141)"/>
  <path d="M0 0 C-3.81846719 3.20983106 -7.76332455 5.8187047 -12.0625 8.3125 C-12.97999023 8.8703418 -12.97999023 8.8703418 -13.91601562 9.43945312 C-18.48864448 12.09404955 -18.48864448 12.09404955 -21.20483398 11.59448242 C-21.79723877 11.39830322 -22.38964355 11.20212402 -23 11 C-19.73925221 8.96253343 -16.46493707 6.94799087 -13.1875 4.9375 C-12.25873047 4.35677734 -11.32996094 3.77605469 -10.37304688 3.17773438 C-9.48037109 2.63310547 -8.58769531 2.08847656 -7.66796875 1.52734375 C-6.84578857 1.01937256 -6.0236084 0.51140137 -5.17651367 -0.01196289 C-3 -1 -3 -1 0 0 Z " fill="#2E3144" transform="translate(678,813)"/>
  <path d="M0 0 C0.33 0 0.66 0 1 0 C2.44796872 8.73952546 3.29211698 17.13911833 3 26 C2.67 26 2.34 26 2 26 C1.67 23.69 1.34 21.38 1 19 C0.67 19 0.34 19 0 19 C0 12.73 0 6.46 0 0 Z " fill="#584FCD" transform="translate(888,457)"/>
  <path d="M0 0 C0.99 0.33 1.98 0.66 3 1 C2.21496094 1.71285156 1.42992187 2.42570313 0.62109375 3.16015625 C-5.04749133 8.32268209 -10.63777611 13.51590739 -16 19 C-16 16 -16 16 -14.53125 14.19067383 C-13.8609375 13.53607178 -13.190625 12.88146973 -12.5 12.20703125 C-11.778125 11.49482422 -11.05625 10.78261719 -10.3125 10.04882812 C-9.549375 9.31083984 -8.78625 8.57285156 -8 7.8125 C-6.8553125 6.68811523 -6.8553125 6.68811523 -5.6875 5.54101562 C-3.79819161 3.68713177 -1.90224794 1.84058931 0 0 Z " fill="#406576" transform="translate(167,147)"/>
  <path d="M0 0 C4.88049925 3.9419417 9.0580583 8.11950075 13 13 C12.67 13.66 12.34 14.32 12 15 C9.13275314 14.42655063 8.1385485 14.1385485 6 12 C5.896875 11.236875 5.79375 10.47375 5.6875 9.6875 C4.76140537 6.0673119 2.66651256 4.52976833 0 2 C0 1.34 0 0.68 0 0 Z " fill="#444589" transform="translate(772,169)"/>
  <path d="M0 0 C2.125 0.9375 2.125 0.9375 4 2 C1.45187125 5.82219312 -0.27650924 5.95116439 -4.625 7.1875 C-6.40777344 7.70376953 -6.40777344 7.70376953 -8.2265625 8.23046875 C-9.14179688 8.48441406 -10.05703125 8.73835938 -11 9 C-10 6 -10 6 -8.15234375 5.05078125 C-7.05599609 4.68533203 -7.05599609 4.68533203 -5.9375 4.3125 C-5.20402344 4.06113281 -4.47054688 3.80976562 -3.71484375 3.55078125 C-2.86599609 3.27814453 -2.86599609 3.27814453 -2 3 C-2 2.34 -2 1.68 -2 1 C-1.34 0.67 -0.68 0.34 0 0 Z " fill="#2E3740" transform="translate(339,42)"/>
  <path d="M0 0 C2.91024202 2.50058918 4.16791164 5.19655377 5.6875 8.6875 C6.12449219 9.68136719 6.56148437 10.67523438 7.01171875 11.69921875 C7.33785156 12.45847656 7.66398438 13.21773438 8 14 C7.01 14.495 7.01 14.495 6 15 C4.79728941 13.26041859 3.6132699 11.50790255 2.4375 9.75 C1.77621094 8.77546875 1.11492188 7.8009375 0.43359375 6.796875 C-1 4 -1 4 -0.71484375 1.640625 C-0.47894531 1.09921875 -0.24304688 0.5578125 0 0 Z " fill="#2A2B37" transform="translate(827,244)"/>
  <path d="M0 0 C0.66 0.33 1.32 0.66 2 1 C0.29639246 2.588417 -1.41311829 4.17050381 -3.125 5.75 C-4.07632813 6.63171875 -5.02765625 7.5134375 -6.0078125 8.421875 C-8.91029774 10.92271085 -11.77508474 12.95213096 -15 15 C-15 14.01 -15 13.02 -15 12 C-12.91123987 10.18483802 -10.85758072 8.55541451 -8.625 6.9375 C-4.13611381 3.68011869 -4.13611381 3.68011869 0 0 Z " fill="#5A61D0" transform="translate(735,772)"/>
  <path d="M0 0 C3.53191322 3.43153914 6.7137505 6.97375062 9.8125 10.8125 C10.60269531 11.78832031 11.39289062 12.76414063 12.20703125 13.76953125 C13.09455078 14.87361328 13.09455078 14.87361328 14 16 C13.34 16.66 12.68 17.32 12 18 C9.99224902 15.38084613 7.99515805 12.75375554 6 10.125 C5.42765625 9.37863281 4.8553125 8.63226563 4.265625 7.86328125 C3.72421875 7.14785156 3.1828125 6.43242187 2.625 5.6953125 C2.12226562 5.03547363 1.61953125 4.37563477 1.1015625 3.69580078 C0 2 0 2 0 0 Z " fill="#343557" transform="translate(790,190)"/>
  <path d="M0 0 C3.3 0.99 6.6 1.98 10 3 C9.34 3.66 8.68 4.32 8 5 C6.65938457 4.69728039 5.32594105 4.36162029 4 4 C3.01 4.33 2.02 4.66 1 5 C-2.1875 4.0625 -2.1875 4.0625 -5 3 C-4.360625 2.690625 -3.72125 2.38125 -3.0625 2.0625 C-1.06389179 1.1654837 -1.06389179 1.1654837 0 0 Z " fill="#5870C5" transform="translate(589,56)"/>
  <path d="M0 0 C0 4.13781054 -1.71509607 5.20919996 -4.5 8.1875 C-5.3353125 9.08855469 -6.170625 9.98960937 -7.03125 10.91796875 C-7.6809375 11.60503906 -8.330625 12.29210937 -9 13 C-9.66 12.34 -10.32 11.68 -11 11 C-9.92173635 9.72486237 -8.83714481 8.45507431 -7.75 7.1875 C-7.14671875 6.47980469 -6.5434375 5.77210938 -5.921875 5.04296875 C-4.07629602 3.08110329 -2.20054668 1.54330375 0 0 Z " fill="#4C849A" transform="translate(118,161)"/>
  <path d="M0 0 C3.00989089 1.50494544 3.43952981 3.76823357 4.75 6.8125 C5.45382812 8.39998047 5.45382812 8.39998047 6.171875 10.01953125 C7 13 7 13 6.140625 15.38671875 C5.76421875 15.91910156 5.3878125 16.45148438 5 17 C2.00577561 11.86704391 1.08307027 5.77637479 0 0 Z " fill="#464294" transform="translate(865,272)"/>
  <path d="M0 0 C0 3 0 3 -2.40625 5.69921875 C-3.4299968 6.70302243 -4.4616054 7.69885649 -5.5 8.6875 C-6.02464844 9.19861328 -6.54929687 9.70972656 -7.08984375 10.23632812 C-8.38660904 11.49772708 -9.69246117 12.74977212 -11 14 C-11.66 13.34 -12.32 12.68 -13 12 C-8.71 8.04 -4.42 4.08 0 0 Z " fill="#575EC7" transform="translate(735,765)"/>
  <path d="M0 0 C3.24745514 4.13312472 5 6.63932628 5 12 C4.34 12 3.68 12 3 12 C2.29773859 10.75823305 1.61370891 9.50614401 0.9375 8.25 C0.36322266 7.20585937 0.36322266 7.20585937 -0.22265625 6.140625 C-1.1312406 3.63859372 -0.88336837 2.4667645 0 0 Z " fill="#5F55E1" transform="translate(856,253)"/>
  <path d="M0 0 C0.33 0 0.66 0 1 0 C1 4.29 1 8.58 1 13 C0.34 13 -0.32 13 -1 13 C-1 14.98 -1 16.96 -1 19 C-1.33 19 -1.66 19 -2 19 C-2 15.37 -2 11.74 -2 8 C-1.67 8 -1.34 8 -1 8 C-0.67 5.36 -0.34 2.72 0 0 Z " fill="#534CBD" transform="translate(883,406)"/>
  <path d="M0 0 C1.12894876 0.93274109 2.25300876 1.87140122 3.375 2.8125 C4.00148438 3.33457031 4.62796875 3.85664063 5.2734375 4.39453125 C7 6 7 6 9 9 C6 9 6 9 4.17578125 7.46875 C3.56089844 6.8190625 2.94601562 6.169375 2.3125 5.5 C1.68988281 4.8503125 1.06726563 4.200625 0.42578125 3.53125 C-0.04472656 3.0259375 -0.51523437 2.520625 -1 2 C-0.67 1.34 -0.34 0.68 0 0 Z " fill="#6369EC" transform="translate(756,154)"/>
  <path d="M0 0 C0 0.66 0 1.32 0 2 C1.32 2.33 2.64 2.66 4 3 C-1.15171623 3.09038099 -5.91913204 2.84681133 -11 2 C-7.36576791 -0.32590854 -4.22911669 -0.16265833 0 0 Z " fill="#536DB5" transform="translate(556,50)"/>
  <path d="M0 0 C9.41002278 0.96355353 9.41002278 0.96355353 14 2 C14 2.33 14 2.66 14 3 C9.05 3 4.1 3 -1 3 C-0.67 2.01 -0.34 1.02 0 0 Z " fill="#394564" transform="translate(522,41)"/>
  <path d="M0 0 C-2.76223278 2.76223278 -5.20706617 2.57856291 -9 3 C-9 2.34 -9 1.68 -9 1 C-9.99 0.67 -10.98 0.34 -12 0 C-3.42857143 -1.28571429 -3.42857143 -1.28571429 0 0 Z " fill="#30374A" transform="translate(533,872)"/>
  <path d="M0 0 C0.80824219 0.38027344 1.61648438 0.76054688 2.44921875 1.15234375 C3.06410156 1.45269531 3.67898438 1.75304687 4.3125 2.0625 C1.15758031 3.1141399 0.27894412 3.04282423 -2.8125 2.25 C-3.51632812 2.07855469 -4.22015625 1.90710938 -4.9453125 1.73046875 C-6.6875 1.0625 -6.6875 1.0625 -7.6875 -0.9375 C-4.04589192 -2.15136936 -3.35584531 -1.6049695 0 0 Z " fill="#6075DF" transform="translate(649.6875,80.9375)"/>
  <path d="M0 0 C4.54805635 -0.17835515 7.8794254 0.00214565 12 2 C12 2.33 12 2.66 12 3 C10.37581255 3.08090971 8.75048255 3.13914995 7.125 3.1875 C5.76761719 3.23970703 5.76761719 3.23970703 4.3828125 3.29296875 C3.20332031 3.14794922 3.20332031 3.14794922 2 3 C1.34 2.01 0.68 1.02 0 0 Z " fill="#5472B6" transform="translate(496,43)"/>
  <path d="M0 0 C0 3 0 3 -1.3125 4.38671875 C-2.875 5.59114583 -4.4375 6.79557292 -6 8 C-6.66 7.34 -7.32 6.68 -8 6 C-5.63379989 3.38472619 -3.057952 1.73559438 0 0 Z " fill="#5BA7C2" transform="translate(129,149)"/>
  <path d="M0 0 C2.05078125 0.03255208 4.1015625 0.06510417 6.15234375 0.09765625 C1.31588077 3.32196491 -1.11705609 3.19008528 -6.84765625 3.09765625 C-6.20828125 2.78828125 -5.56890625 2.47890625 -4.91015625 2.16015625 C-0.79887576 0.04222388 -0.79887576 0.04222388 0 0 Z " fill="#2F3744" transform="translate(427.84765625,28.90234375)"/>
  <path d="M0 0 C2.64752004 2.57784846 4.94432065 4.91648098 7 8 C6.01 8 5.02 8 4 8 C0 3.77142857 0 3.77142857 0 0 Z " fill="#6162E4" transform="translate(782,182)"/>
  <path d="M0 0 C0.99 0.33 1.98 0.66 3 1 C1.25 3.0625 1.25 3.0625 -1 5 C-3.25 4.75 -3.25 4.75 -5 4 C-2.6875 1.9375 -2.6875 1.9375 0 0 Z " fill="#2F3046" transform="translate(717,801)"/>
  <path d="M0 0 C2.96404505 2.80804268 5.44499019 5.18315774 7 9 C6.01 9.495 6.01 9.495 5 10 C4.16121545 8.71186658 3.32913217 7.41936744 2.5 6.125 C2.0359375 5.40570313 1.571875 4.68640625 1.09375 3.9453125 C0 2 0 2 0 0 Z " fill="#2A2B37" transform="translate(803,207)"/>
  <path d="M0 0 C2.4375 0.1875 2.4375 0.1875 5 1 C6.3125 3.0625 6.3125 3.0625 7 5 C1.25 3.25 1.25 3.25 -1 1 C-0.67 0.67 -0.34 0.34 0 0 Z " fill="#5567BC" transform="translate(624,69)"/>
  <path d="M0 0 C0.33 0 0.66 0 1 0 C1.33 3.3 1.66 6.6 2 10 C1.01 10.495 1.01 10.495 0 11 C-1.28571429 3.57142857 -1.28571429 3.57142857 0 0 Z " fill="#4D899A" transform="translate(18,528)"/>
  <path d="M0 0 C0.598125 0.350625 1.19625 0.70125 1.8125 1.0625 C1.8125 1.7225 1.8125 2.3825 1.8125 3.0625 C-1.125 2.6875 -1.125 2.6875 -4.1875 2.0625 C-4.5175 1.4025 -4.8475 0.7425 -5.1875 0.0625 C-2.1875 -0.9375 -2.1875 -0.9375 0 0 Z " fill="#363E5A" transform="translate(579.1875,45.9375)"/>
  <path d="M0 0 C0 0.66 0 1.32 0 2 C-1.65 2.66 -3.3 3.32 -5 4 C-5.33 2.68 -5.66 1.36 -6 0 C-3.50907189 -1.24546405 -2.58919267 -0.7767578 0 0 Z " fill="#5666C0" transform="translate(657,826)"/>
</svg>