<svg xmlns="http://www.w3.org/2000/svg" xmlns:xlink="http://www.w3.org/1999/xlink" width="192" zoomAndPan="magnify" viewBox="0 0 144 143.999998" height="192" preserveAspectRatio="xMidYMid meet" version="1.0"><defs><clipPath id="07fd201320"><path d="M 0 0.765625 L 144 0.765625 L 144 143.265625 L 0 143.265625 Z M 0 0.765625 " clip-rule="nonzero"/></clipPath></defs><g clip-path="url(#07fd201320)"><path fill="#eef7ff" d="M 71.777344 0.765625 C 31.691406 0.765625 -0.71875 33.414062 -0.71875 73.804688 C -0.71875 106.089844 20.046875 133.417969 48.851562 143.089844 C 52.453125 143.816406 53.773438 141.519531 53.773438 139.585938 C 53.773438 137.890625 53.65625 132.089844 53.65625 126.039062 C 33.488281 130.394531 29.289062 117.335938 29.289062 117.335938 C 26.046875 108.871094 21.246094 106.695312 21.246094 106.695312 C 14.644531 102.21875 21.726562 102.21875 21.726562 102.21875 C 29.046875 102.703125 32.890625 109.71875 32.890625 109.71875 C 39.371094 120.839844 49.8125 117.699219 54.015625 115.761719 C 54.613281 111.046875 56.535156 107.78125 58.578125 105.96875 C 42.492188 104.277344 25.566406 97.988281 25.566406 69.933594 C 25.566406 61.953125 28.445312 55.421875 33.007812 50.34375 C 32.289062 48.53125 29.769531 41.03125 33.730469 30.996094 C 33.730469 30.996094 39.851562 29.0625 53.652344 38.492188 C 59.589844 36.886719 65.628906 36.082031 71.777344 36.074219 C 77.902344 36.074219 84.140625 36.921875 89.902344 38.492188 C 103.707031 29.0625 109.828125 30.996094 109.828125 30.996094 C 113.789062 41.03125 111.269531 48.53125 110.546875 50.34375 C 115.230469 55.421875 117.992188 61.953125 117.992188 69.933594 C 117.992188 97.988281 101.066406 104.152344 84.863281 105.96875 C 87.503906 108.265625 89.78125 112.617188 89.78125 119.511719 C 89.78125 129.304688 89.664062 137.167969 89.664062 139.582031 C 89.664062 141.519531 90.984375 143.816406 94.585938 143.09375 C 123.390625 133.417969 144.15625 106.089844 144.15625 73.804688 C 144.277344 33.414062 111.75 0.765625 71.777344 0.765625 Z M 71.777344 0.765625 " fill-opacity="1" fill-rule="evenodd"/></g></svg>