<svg xmlns="http://www.w3.org/2000/svg" xmlns:xlink="http://www.w3.org/1999/xlink" width="192" zoomAndPan="magnify" viewBox="0 0 144 143.999998" height="192" preserveAspectRatio="xMidYMid meet" version="1.0"><defs><clipPath id="6ef0742b09"><path d="M 4 3.371094 L 140 3.371094 L 140 139 L 4 139 Z M 4 3.371094 " clip-rule="nonzero"/></clipPath><clipPath id="e27e5b450e"><path d="M 3.371094 72 C 3.371094 90.203125 10.601562 107.65625 23.472656 120.527344 C 36.34375 133.398438 53.796875 140.628906 72 140.628906 C 90.203125 140.628906 107.65625 133.398438 120.527344 120.527344 C 133.398438 107.65625 140.628906 90.203125 140.628906 72 C 140.628906 53.796875 133.398438 36.34375 120.527344 23.472656 C 107.65625 10.601562 90.203125 3.371094 72 3.371094 C 53.796875 3.371094 36.34375 10.601562 23.472656 23.472656 C 10.601562 36.34375 3.371094 53.796875 3.371094 72 Z M 3.371094 72 " clip-rule="nonzero"/></clipPath></defs><g clip-path="url(#6ef0742b09)"><g clip-path="url(#e27e5b450e)"><path fill="#eef7ff" d="M 119.566406 118.769531 L 99.5 118.769531 L 99.5 87.34375 C 99.5 79.847656 99.363281 70.203125 89.058594 70.203125 C 78.609375 70.203125 77.007812 78.367188 77.007812 86.796875 L 77.007812 118.765625 L 56.941406 118.765625 L 56.941406 54.140625 L 76.207031 54.140625 L 76.207031 62.972656 L 76.476562 62.972656 C 76.957031 62.152344 77.488281 61.367188 78.074219 60.617188 C 78.660156 59.871094 79.292969 59.167969 79.976562 58.503906 C 80.65625 57.839844 81.378906 57.226562 82.140625 56.660156 C 82.90625 56.09375 83.707031 55.585938 84.535156 55.125 C 85.371094 54.667969 86.230469 54.269531 87.117188 53.925781 C 88.003906 53.585938 88.910156 53.304688 89.832031 53.085938 C 90.761719 52.867188 91.695312 52.714844 92.640625 52.621094 C 93.585938 52.527344 94.535156 52.496094 95.484375 52.53125 C 115.824219 52.53125 119.574219 65.914062 119.574219 83.316406 Z M 34.300781 45.304688 C 33.53125 45.308594 32.777344 45.234375 32.023438 45.082031 C 31.277344 44.933594 30.546875 44.714844 29.84375 44.421875 C 29.136719 44.128906 28.464844 43.769531 27.828125 43.347656 C 27.191406 42.921875 26.605469 42.4375 26.0625 41.898438 C 25.519531 41.359375 25.039062 40.769531 24.617188 40.132812 C 24.1875 39.496094 23.828125 38.828125 23.539062 38.121094 C 23.246094 37.410156 23.027344 36.6875 22.871094 35.933594 C 22.722656 35.183594 22.648438 34.429688 22.648438 33.664062 C 22.648438 32.898438 22.722656 32.140625 22.871094 31.390625 C 23.023438 30.640625 23.246094 29.914062 23.535156 29.207031 C 23.828125 28.5 24.1875 27.828125 24.613281 27.191406 C 25.035156 26.554688 25.519531 25.96875 26.058594 25.425781 C 26.601562 24.886719 27.1875 24.402344 27.824219 23.980469 C 28.460938 23.554688 29.132812 23.195312 29.839844 22.902344 C 30.542969 22.609375 31.273438 22.390625 32.019531 22.238281 C 32.773438 22.089844 33.527344 22.015625 34.296875 22.015625 C 35.058594 22.015625 35.816406 22.089844 36.566406 22.238281 C 37.316406 22.390625 38.042969 22.609375 38.753906 22.902344 C 39.457031 23.191406 40.128906 23.550781 40.761719 23.980469 C 41.398438 24.402344 41.988281 24.882812 42.527344 25.421875 C 43.070312 25.96875 43.550781 26.554688 43.976562 27.1875 C 44.402344 27.824219 44.761719 28.496094 45.054688 29.203125 C 45.347656 29.910156 45.570312 30.636719 45.71875 31.386719 C 45.867188 32.136719 45.941406 32.894531 45.941406 33.660156 C 45.941406 34.421875 45.867188 35.183594 45.71875 35.929688 C 45.570312 36.683594 45.347656 37.40625 45.054688 38.117188 C 44.765625 38.824219 44.402344 39.492188 43.980469 40.128906 C 43.554688 40.765625 43.070312 41.355469 42.53125 41.894531 C 41.992188 42.433594 41.402344 42.917969 40.765625 43.34375 C 40.132812 43.765625 39.460938 44.128906 38.753906 44.417969 C 38.046875 44.714844 37.320312 44.933594 36.570312 45.082031 C 35.816406 45.230469 35.0625 45.304688 34.300781 45.304688 M 44.332031 118.769531 L 24.242188 118.769531 L 24.242188 54.140625 L 44.332031 54.140625 Z M 129.570312 3.378906 L 14.160156 3.378906 C 13.507812 3.371094 12.867188 3.425781 12.226562 3.546875 C 11.59375 3.664062 10.972656 3.847656 10.371094 4.089844 C 9.765625 4.328125 9.199219 4.625 8.652344 4.980469 C 8.109375 5.335938 7.605469 5.738281 7.144531 6.191406 C 6.675781 6.644531 6.265625 7.140625 5.894531 7.675781 C 5.527344 8.207031 5.21875 8.773438 4.960938 9.371094 C 4.707031 9.96875 4.511719 10.582031 4.375 11.214844 C 4.242188 11.851562 4.171875 12.492188 4.164062 13.140625 L 4.164062 129.03125 C 4.171875 129.679688 4.242188 130.324219 4.375 130.957031 C 4.511719 131.59375 4.703125 132.207031 4.960938 132.800781 C 5.21875 133.402344 5.527344 133.96875 5.894531 134.503906 C 6.261719 135.035156 6.675781 135.53125 7.140625 135.984375 C 7.605469 136.441406 8.105469 136.84375 8.652344 137.199219 C 9.195312 137.554688 9.765625 137.851562 10.371094 138.09375 C 10.96875 138.335938 11.59375 138.515625 12.226562 138.632812 C 12.863281 138.753906 13.507812 138.8125 14.160156 138.804688 L 129.570312 138.804688 C 130.21875 138.8125 130.867188 138.753906 131.503906 138.636719 C 132.144531 138.515625 132.765625 138.339844 133.367188 138.097656 C 133.972656 137.859375 134.546875 137.5625 135.09375 137.207031 C 135.640625 136.847656 136.140625 136.449219 136.609375 135.992188 C 137.074219 135.539062 137.492188 135.042969 137.859375 134.511719 C 138.226562 133.976562 138.539062 133.40625 138.796875 132.808594 C 139.054688 132.214844 139.25 131.597656 139.390625 130.960938 C 139.523438 130.324219 139.59375 129.683594 139.605469 129.03125 L 139.605469 13.132812 C 139.59375 12.480469 139.523438 11.839844 139.386719 11.203125 C 139.25 10.566406 139.054688 9.953125 138.796875 9.359375 C 138.539062 8.757812 138.226562 8.191406 137.859375 7.660156 C 137.488281 7.125 137.074219 6.628906 136.609375 6.175781 C 136.140625 5.722656 135.636719 5.316406 135.09375 4.964844 C 134.542969 4.609375 133.972656 4.3125 133.367188 4.074219 C 132.765625 3.832031 132.144531 3.652344 131.503906 3.535156 C 130.863281 3.414062 130.21875 3.363281 129.570312 3.371094 " fill-opacity="1" fill-rule="nonzero"/></g></g></svg>