<svg xmlns="http://www.w3.org/2000/svg" xmlns:xlink="http://www.w3.org/1999/xlink" width="192" zoomAndPan="magnify" viewBox="0 0 144 143.999998" height="192" preserveAspectRatio="xMidYMid meet" version="1.0"><defs><clipPath id="e2deb6bee2"><path d="M 13 12.320312 L 131 12.320312 L 131 130 L 13 130 Z M 13 12.320312 " clip-rule="nonzero"/></clipPath><clipPath id="42baa73c2e"><path d="M 12.320312 72 C 12.320312 104.960938 39.039062 131.679688 72 131.679688 C 104.960938 131.679688 131.679688 104.960938 131.679688 72 C 131.679688 39.039062 104.960938 12.320312 72 12.320312 C 39.039062 12.320312 12.320312 39.039062 12.320312 72 Z M 12.320312 72 " clip-rule="nonzero"/></clipPath><clipPath id="c1c1b3ed34"><path d="M 7.421875 7.421875 L 136.421875 7.421875 L 136.421875 136.421875 L 7.421875 136.421875 Z M 7.421875 7.421875 " clip-rule="nonzero"/></clipPath><clipPath id="cfd5289c75"><path d="M 72 7.421875 C 36.335938 7.421875 7.421875 36.335938 7.421875 72 C 7.421875 107.664062 36.335938 136.574219 72 136.574219 C 107.664062 136.574219 136.574219 107.664062 136.574219 72 C 136.574219 36.335938 107.664062 7.421875 72 7.421875 Z M 72 7.421875 " clip-rule="nonzero"/></clipPath></defs><g clip-path="url(#e2deb6bee2)"><g clip-path="url(#42baa73c2e)"><path fill="#eef7ff" d="M 113.277344 112.585938 L 95.839844 112.585938 L 95.839844 85.277344 C 95.839844 78.765625 95.726562 70.386719 86.769531 70.386719 C 77.691406 70.386719 76.300781 77.480469 76.300781 84.804688 L 76.300781 112.582031 L 58.863281 112.582031 L 58.863281 56.429688 L 75.605469 56.429688 L 75.605469 64.105469 L 75.835938 64.105469 C 76.253906 63.390625 76.714844 62.710938 77.226562 62.058594 C 77.734375 61.410156 78.285156 60.796875 78.878906 60.222656 C 79.46875 59.644531 80.097656 59.113281 80.761719 58.621094 C 81.421875 58.128906 82.117188 57.6875 82.839844 57.289062 C 83.566406 56.890625 84.3125 56.542969 85.082031 56.246094 C 85.855469 55.949219 86.640625 55.707031 87.445312 55.515625 C 88.25 55.324219 89.0625 55.191406 89.882812 55.109375 C 90.703125 55.03125 91.527344 55.003906 92.355469 55.035156 C 110.027344 55.035156 113.285156 66.660156 113.285156 81.78125 Z M 39.191406 48.753906 C 38.527344 48.757812 37.867188 48.691406 37.214844 48.558594 C 36.566406 48.429688 35.929688 48.238281 35.320312 47.988281 C 34.707031 47.730469 34.125 47.421875 33.570312 47.054688 C 33.015625 46.683594 32.503906 46.261719 32.035156 45.792969 C 31.5625 45.324219 31.148438 44.8125 30.777344 44.261719 C 30.40625 43.707031 30.097656 43.125 29.84375 42.511719 C 29.585938 41.898438 29.398438 41.265625 29.265625 40.613281 C 29.136719 39.960938 29.070312 39.304688 29.070312 38.640625 C 29.070312 37.976562 29.136719 37.316406 29.265625 36.664062 C 29.394531 36.011719 29.585938 35.382812 29.839844 34.765625 C 30.097656 34.152344 30.40625 33.570312 30.773438 33.015625 C 31.144531 32.464844 31.5625 31.953125 32.035156 31.484375 C 32.503906 31.015625 33.011719 30.59375 33.566406 30.226562 C 34.121094 29.855469 34.703125 29.546875 35.316406 29.289062 C 35.929688 29.035156 36.5625 28.84375 37.210938 28.714844 C 37.867188 28.585938 38.523438 28.519531 39.1875 28.519531 C 39.851562 28.519531 40.507812 28.585938 41.164062 28.714844 C 41.8125 28.84375 42.445312 29.035156 43.0625 29.289062 C 43.671875 29.542969 44.257812 29.851562 44.808594 30.226562 C 45.359375 30.59375 45.871094 31.011719 46.339844 31.480469 C 46.8125 31.953125 47.230469 32.464844 47.597656 33.011719 C 47.972656 33.566406 48.28125 34.148438 48.539062 34.761719 C 48.789062 35.378906 48.984375 36.007812 49.113281 36.664062 C 49.242188 37.3125 49.308594 37.972656 49.308594 38.636719 C 49.308594 39.300781 49.242188 39.957031 49.113281 40.609375 C 48.984375 41.261719 48.792969 41.894531 48.539062 42.507812 C 48.285156 43.121094 47.972656 43.703125 47.601562 44.257812 C 47.234375 44.8125 46.8125 45.320312 46.34375 45.792969 C 45.875 46.261719 45.363281 46.679688 44.8125 47.050781 C 44.261719 47.417969 43.675781 47.730469 43.0625 47.984375 C 42.449219 48.238281 41.816406 48.429688 41.164062 48.558594 C 40.511719 48.691406 39.855469 48.753906 39.191406 48.753906 M 47.910156 112.585938 L 30.453125 112.585938 L 30.453125 56.429688 L 47.910156 56.429688 Z M 121.96875 12.328125 L 21.695312 12.328125 C 21.128906 12.320312 20.574219 12.367188 20.015625 12.472656 C 19.460938 12.574219 18.925781 12.734375 18.402344 12.945312 C 17.878906 13.152344 17.382812 13.410156 16.910156 13.71875 C 16.4375 14.027344 16 14.378906 15.597656 14.773438 C 15.191406 15.164062 14.832031 15.59375 14.511719 16.058594 C 14.191406 16.523438 13.925781 17.015625 13.703125 17.535156 C 13.480469 18.050781 13.308594 18.585938 13.195312 19.136719 C 13.078125 19.6875 13.015625 20.246094 13.007812 20.808594 L 13.007812 121.5 C 13.015625 122.0625 13.078125 122.621094 13.195312 123.171875 C 13.308594 123.726562 13.476562 124.257812 13.703125 124.777344 C 13.925781 125.296875 14.191406 125.789062 14.511719 126.253906 C 14.832031 126.71875 15.191406 127.148438 15.59375 127.542969 C 16 127.9375 16.433594 128.285156 16.90625 128.597656 C 17.378906 128.90625 17.878906 129.164062 18.402344 129.375 C 18.921875 129.582031 19.460938 129.738281 20.015625 129.84375 C 20.570312 129.949219 21.128906 129.996094 21.695312 129.992188 L 121.96875 129.992188 C 122.53125 129.996094 123.09375 129.949219 123.648438 129.847656 C 124.203125 129.742188 124.746094 129.585938 125.269531 129.375 C 125.792969 129.167969 126.292969 128.910156 126.765625 128.605469 C 127.242188 128.292969 127.679688 127.945312 128.082031 127.550781 C 128.488281 127.15625 128.851562 126.722656 129.167969 126.261719 C 129.488281 125.796875 129.761719 125.300781 129.984375 124.785156 C 130.207031 124.265625 130.378906 123.730469 130.5 123.175781 C 130.617188 122.621094 130.675781 122.066406 130.6875 121.5 L 130.6875 20.800781 C 130.675781 20.234375 130.617188 19.679688 130.496094 19.125 C 130.378906 18.574219 130.207031 18.039062 129.984375 17.523438 C 129.761719 17 129.488281 16.507812 129.167969 16.046875 C 128.851562 15.582031 128.488281 15.152344 128.082031 14.757812 C 127.679688 14.363281 127.238281 14.011719 126.765625 13.703125 C 126.289062 13.398438 125.792969 13.136719 125.269531 12.929688 C 124.746094 12.722656 124.203125 12.566406 123.648438 12.460938 C 123.089844 12.359375 122.53125 12.3125 121.96875 12.320312 " fill-opacity="1" fill-rule="nonzero"/></g></g><g clip-path="url(#c1c1b3ed34)"><g clip-path="url(#cfd5289c75)"><path stroke-linecap="butt" transform="matrix(0.75, 0, 0, 0.75, 7.422347, 7.422347)" fill="none" stroke-linejoin="miter" d="M 86.103543 -0.000629869 C 38.551457 -0.000629869 -0.000628869 38.551456 -0.000628869 86.103542 C -0.000628869 133.655628 38.551457 172.202505 86.103543 172.202505 C 133.655629 172.202505 172.202506 133.655628 172.202506 86.103542 C 172.202506 38.551456 133.655629 -0.000629869 86.103543 -0.000629869 Z M 86.103543 -0.000629869 " stroke="#eef7ff" stroke-width="18" stroke-opacity="1" stroke-miterlimit="4"/></g></g></svg>