<svg xmlns="http://www.w3.org/2000/svg" xmlns:xlink="http://www.w3.org/1999/xlink" width="192" zoomAndPan="magnify" viewBox="0 0 144 143.999998" height="192" preserveAspectRatio="xMidYMid meet" version="1.0"><defs><clipPath id="27a1f28c2b"><path d="M 1.351562 1.351562 L 142.351562 1.351562 L 142.351562 142.351562 L 1.351562 142.351562 Z M 1.351562 1.351562 " clip-rule="nonzero"/></clipPath></defs><g clip-path="url(#27a1f28c2b)"><path fill="#eef7ff" d="M 72 142.644531 C 111.015625 142.644531 142.644531 111.015625 142.644531 72 C 142.644531 32.980469 111.015625 1.351562 72 1.351562 C 32.980469 1.351562 1.351562 32.980469 1.351562 72 C 1.351562 111.015625 32.980469 142.644531 72 142.644531 Z M 39.914062 41.945312 L 72 67.613281 L 104.085938 41.945312 L 105.011719 41.171875 L 38.988281 41.171875 Z M 108.445312 47.226562 L 109.675781 46.203125 L 109.675781 99.402344 C 109.675781 101.292969 108.144531 102.828125 106.253906 102.828125 L 37.746094 102.828125 C 35.855469 102.828125 34.320312 101.292969 34.320312 99.402344 L 34.320312 46.203125 L 35.554688 47.226562 L 35.605469 47.273438 L 69.859375 74.675781 C 71.109375 75.675781 72.886719 75.675781 74.140625 74.675781 L 108.390625 47.273438 Z M 108.445312 47.226562 " fill-opacity="1" fill-rule="evenodd"/></g></svg>