<svg xmlns="http://www.w3.org/2000/svg" xmlns:xlink="http://www.w3.org/1999/xlink" width="192" zoomAndPan="magnify" viewBox="0 0 144 143.999998" height="192" preserveAspectRatio="xMidYMid meet" version="1.0"><defs><clipPath id="3df772c3b4"><path d="M 4.535156 4.535156 L 139.535156 4.535156 L 139.535156 139.535156 L 4.535156 139.535156 Z M 4.535156 4.535156 " clip-rule="nonzero"/></clipPath></defs><g clip-path="url(#3df772c3b4)"><path fill="#eef7ff" d="M 46.539062 89.105469 L 36.554688 89.105469 C 34.453125 84.785156 33.144531 80.015625 32.765625 74.984375 L 43.855469 74.984375 C 44.121094 79.867188 45.066406 84.617188 46.539062 89.105469 Z M 46.539062 54.882812 L 36.554688 54.882812 C 34.453125 59.203125 33.144531 63.972656 32.765625 69.007812 L 43.855469 69.007812 C 44.121094 64.121094 45.066406 59.371094 46.539062 54.882812 Z M 40.164062 95.097656 C 44.785156 101.457031 51.257812 106.390625 58.789062 109.074219 C 54.816406 105.230469 51.457031 100.464844 48.921875 95.097656 Z M 58.789062 34.917969 C 51.257812 37.613281 44.785156 42.53125 40.164062 48.890625 L 48.921875 48.890625 C 51.457031 43.527344 54.816406 38.757812 58.789062 34.917969 Z M 55.59375 48.890625 L 69.007812 48.890625 L 69.007812 34.636719 C 63.574219 37.730469 58.941406 42.765625 55.59375 48.890625 Z M 49.851562 68.988281 L 69.007812 68.988281 L 69.007812 54.867188 L 52.847656 54.867188 C 51.207031 59.289062 50.164062 64.070312 49.851562 68.988281 Z M 52.847656 89.105469 L 69.007812 89.105469 L 69.007812 74.984375 L 49.851562 74.984375 C 50.148438 79.917969 51.207031 84.683594 52.847656 89.105469 Z M 69.007812 109.371094 L 69.007812 95.097656 L 55.59375 95.097656 C 58.941406 101.226562 63.574219 106.257812 69.007812 109.371094 Z M 75 95.097656 L 75 109.371094 C 80.414062 106.257812 85.050781 101.242188 88.410156 95.097656 Z M 75 34.636719 L 75 48.890625 L 88.410156 48.890625 C 85.050781 42.765625 80.414062 37.730469 75 34.636719 Z M 94.136719 74.984375 L 75 74.984375 L 75 89.105469 L 91.140625 89.105469 C 92.796875 84.683594 93.839844 79.917969 94.136719 74.984375 Z M 91.140625 54.882812 L 75 54.882812 L 75 69.007812 L 94.15625 69.007812 C 93.839844 64.070312 92.796875 59.289062 91.140625 54.882812 Z M 85.199219 109.074219 C 92.730469 106.390625 99.203125 101.457031 103.824219 95.097656 L 95.066406 95.097656 C 92.53125 100.464844 89.1875 105.230469 85.199219 109.074219 Z M 103.824219 48.890625 C 99.203125 42.53125 92.730469 37.613281 85.199219 34.917969 C 89.171875 38.757812 92.53125 43.527344 95.066406 48.890625 Z M 97.449219 89.105469 L 107.433594 89.105469 C 109.535156 84.785156 110.84375 80.015625 111.226562 74.984375 L 100.132812 74.984375 C 99.867188 79.867188 98.941406 84.617188 97.449219 89.105469 Z M 100.148438 68.988281 L 111.242188 68.988281 C 110.859375 63.972656 109.550781 59.203125 107.449219 54.867188 L 97.464844 54.867188 C 98.941406 59.371094 99.867188 64.121094 100.148438 68.988281 Z M 139.453125 71.984375 C 139.453125 109.253906 109.253906 139.453125 72.003906 139.453125 C 34.734375 139.453125 4.535156 109.253906 4.535156 71.984375 C 4.535156 34.734375 34.734375 4.535156 72.003906 4.535156 C 109.253906 4.535156 139.453125 34.734375 139.453125 71.984375 Z M 117.351562 71.984375 C 117.351562 46.984375 97.003906 26.636719 72.003906 26.636719 C 46.984375 26.636719 26.65625 46.984375 26.65625 71.984375 C 26.65625 97.003906 46.984375 117.335938 72.003906 117.335938 C 97.003906 117.335938 117.351562 97.003906 117.351562 71.984375 Z M 117.351562 71.984375 " fill-opacity="1" fill-rule="nonzero"/></g></svg>