<svg xmlns="http://www.w3.org/2000/svg" xmlns:xlink="http://www.w3.org/1999/xlink" width="192" zoomAndPan="magnify" viewBox="0 0 144 143.999998" height="192" preserveAspectRatio="xMidYMid meet" version="1.0"><defs><clipPath id="cff16774ec"><path d="M 2.441406 2.441406 L 141.191406 2.441406 L 141.191406 141.191406 L 2.441406 141.191406 Z M 2.441406 2.441406 " clip-rule="nonzero"/></clipPath></defs><g clip-path="url(#cff16774ec)"><path fill="#eef7ff" d="M 141.5625 72.003906 C 141.5625 73.140625 141.535156 74.277344 141.480469 75.414062 C 141.425781 76.550781 141.339844 77.6875 141.230469 78.820312 C 141.117188 79.953125 140.976562 81.082031 140.8125 82.207031 C 140.644531 83.335938 140.449219 84.457031 140.226562 85.570312 C 140.003906 86.6875 139.757812 87.800781 139.480469 88.902344 C 139.203125 90.007812 138.898438 91.105469 138.570312 92.195312 C 138.238281 93.28125 137.882812 94.363281 137.496094 95.4375 C 137.113281 96.507812 136.703125 97.570312 136.269531 98.621094 C 135.832031 99.671875 135.371094 100.714844 134.886719 101.742188 C 134.398438 102.769531 133.886719 103.789062 133.351562 104.792969 C 132.8125 105.796875 132.253906 106.785156 131.667969 107.761719 C 131.082031 108.738281 130.472656 109.699219 129.839844 110.648438 C 129.207031 111.59375 128.554688 112.523438 127.875 113.4375 C 127.199219 114.351562 126.496094 115.25 125.773438 116.128906 C 125.054688 117.007812 124.308594 117.871094 123.546875 118.714844 C 122.78125 119.558594 121.996094 120.382812 121.191406 121.1875 C 120.386719 121.992188 119.5625 122.777344 118.71875 123.542969 C 117.875 124.304688 117.011719 125.050781 116.132812 125.769531 C 115.253906 126.492188 114.355469 127.195312 113.441406 127.871094 C 112.527344 128.550781 111.597656 129.207031 110.648438 129.835938 C 109.703125 130.46875 108.742188 131.078125 107.765625 131.664062 C 106.789062 132.25 105.800781 132.808594 104.796875 133.347656 C 103.792969 133.882812 102.773438 134.394531 101.746094 134.882812 C 100.714844 135.367188 99.675781 135.828125 98.625 136.265625 C 97.574219 136.703125 96.511719 137.109375 95.4375 137.496094 C 94.367188 137.878906 93.285156 138.234375 92.199219 138.566406 C 91.109375 138.894531 90.011719 139.199219 88.90625 139.476562 C 87.800781 139.753906 86.691406 140 85.574219 140.222656 C 84.460938 140.445312 83.339844 140.640625 82.210938 140.808594 C 81.085938 140.976562 79.957031 141.113281 78.824219 141.226562 C 77.691406 141.335938 76.554688 141.421875 75.417969 141.476562 C 74.28125 141.53125 73.144531 141.558594 72.003906 141.558594 C 70.867188 141.558594 69.730469 141.53125 68.59375 141.476562 C 67.457031 141.421875 66.320312 141.335938 65.1875 141.226562 C 64.054688 141.113281 62.925781 140.976562 61.800781 140.808594 C 60.671875 140.640625 59.550781 140.445312 58.433594 140.222656 C 57.320312 140 56.207031 139.753906 55.105469 139.476562 C 54 139.199219 52.902344 138.894531 51.8125 138.566406 C 50.722656 138.234375 49.644531 137.878906 48.570312 137.496094 C 47.5 137.109375 46.4375 136.703125 45.386719 136.265625 C 44.335938 135.828125 43.292969 135.367188 42.265625 134.882812 C 41.238281 134.394531 40.21875 133.882812 39.214844 133.347656 C 38.210938 132.808594 37.222656 132.25 36.246094 131.664062 C 35.269531 131.078125 34.308594 130.46875 33.359375 129.835938 C 32.414062 129.207031 31.484375 128.550781 30.570312 127.871094 C 29.65625 127.195312 28.757812 126.492188 27.878906 125.769531 C 27 125.050781 26.136719 124.304688 25.292969 123.542969 C 24.449219 122.777344 23.625 121.992188 22.820312 121.1875 C 22.015625 120.382812 21.230469 119.558594 20.464844 118.714844 C 19.703125 117.871094 18.957031 117.007812 18.234375 116.128906 C 17.515625 115.25 16.8125 114.351562 16.136719 113.4375 C 15.457031 112.523438 14.800781 111.59375 14.171875 110.648438 C 13.539062 109.699219 12.929688 108.738281 12.34375 107.761719 C 11.757812 106.785156 11.195312 105.796875 10.660156 104.792969 C 10.125 103.789062 9.613281 102.769531 9.125 101.742188 C 8.640625 100.714844 8.175781 99.671875 7.742188 98.621094 C 7.304688 97.570312 6.898438 96.507812 6.511719 95.4375 C 6.128906 94.363281 5.773438 93.28125 5.441406 92.195312 C 5.113281 91.105469 4.808594 90.007812 4.53125 88.902344 C 4.253906 87.800781 4.003906 86.6875 3.785156 85.570312 C 3.5625 84.457031 3.367188 83.335938 3.199219 82.207031 C 3.03125 81.082031 2.894531 79.953125 2.78125 78.820312 C 2.671875 77.6875 2.585938 76.550781 2.53125 75.414062 C 2.476562 74.277344 2.445312 73.140625 2.445312 72.003906 C 2.445312 70.863281 2.476562 69.726562 2.53125 68.589844 C 2.585938 67.453125 2.671875 66.316406 2.78125 65.183594 C 2.894531 64.050781 3.03125 62.921875 3.199219 61.796875 C 3.367188 60.667969 3.5625 59.546875 3.785156 58.433594 C 4.003906 57.316406 4.253906 56.203125 4.53125 55.101562 C 4.808594 53.996094 5.113281 52.898438 5.441406 51.808594 C 5.773438 50.722656 6.128906 49.640625 6.511719 48.570312 C 6.898438 47.496094 7.304688 46.433594 7.742188 45.382812 C 8.175781 44.332031 8.640625 43.292969 9.125 42.261719 C 9.613281 41.234375 10.125 40.214844 10.660156 39.210938 C 11.195312 38.207031 11.757812 37.21875 12.34375 36.242188 C 12.929688 35.265625 13.539062 34.304688 14.171875 33.359375 C 14.800781 32.410156 15.457031 31.480469 16.136719 30.566406 C 16.8125 29.652344 17.515625 28.753906 18.234375 27.875 C 18.957031 26.996094 19.703125 26.132812 20.464844 25.289062 C 21.230469 24.445312 22.015625 23.621094 22.820312 22.816406 C 23.625 22.011719 24.449219 21.226562 25.292969 20.460938 C 26.136719 19.699219 27 18.953125 27.878906 18.234375 C 28.757812 17.511719 29.65625 16.808594 30.570312 16.132812 C 31.484375 15.453125 32.414062 14.796875 33.359375 14.167969 C 34.308594 13.535156 35.269531 12.925781 36.246094 12.339844 C 37.222656 11.753906 38.210938 11.195312 39.214844 10.65625 C 40.21875 10.121094 41.238281 9.609375 42.265625 9.121094 C 43.292969 8.636719 44.335938 8.175781 45.386719 7.738281 C 46.4375 7.304688 47.5 6.894531 48.570312 6.511719 C 49.644531 6.125 50.722656 5.769531 51.8125 5.4375 C 52.902344 5.109375 54 4.804688 55.105469 4.527344 C 56.207031 4.25 57.320312 4.003906 58.433594 3.78125 C 59.550781 3.558594 60.671875 3.363281 61.800781 3.195312 C 62.925781 3.03125 64.054688 2.890625 65.1875 2.777344 C 66.320312 2.667969 67.457031 2.582031 68.59375 2.527344 C 69.730469 2.472656 70.867188 2.445312 72.003906 2.445312 C 73.144531 2.445312 74.28125 2.472656 75.417969 2.527344 C 76.554688 2.582031 77.691406 2.667969 78.824219 2.777344 C 79.957031 2.890625 81.085938 3.03125 82.210938 3.195312 C 83.339844 3.363281 84.460938 3.558594 85.574219 3.78125 C 86.691406 4.003906 87.800781 4.25 88.90625 4.527344 C 90.011719 4.804688 91.109375 5.109375 92.199219 5.4375 C 93.285156 5.769531 94.367188 6.125 95.4375 6.511719 C 96.511719 6.894531 97.574219 7.304688 98.625 7.738281 C 99.675781 8.175781 100.714844 8.636719 101.746094 9.121094 C 102.773438 9.609375 103.792969 10.121094 104.796875 10.65625 C 105.800781 11.195312 106.789062 11.753906 107.765625 12.339844 C 108.742188 12.925781 109.703125 13.535156 110.648438 14.167969 C 111.597656 14.796875 112.527344 15.453125 113.441406 16.132812 C 114.355469 16.808594 115.253906 17.511719 116.132812 18.234375 C 117.011719 18.953125 117.875 19.699219 118.71875 20.460938 C 119.5625 21.226562 120.386719 22.011719 121.191406 22.816406 C 121.996094 23.621094 122.78125 24.445312 123.546875 25.289062 C 124.308594 26.132812 125.054688 26.996094 125.773438 27.875 C 126.496094 28.753906 127.199219 29.652344 127.875 30.566406 C 128.554688 31.480469 129.207031 32.410156 129.839844 33.359375 C 130.472656 34.304688 131.082031 35.265625 131.667969 36.242188 C 132.253906 37.21875 132.8125 38.207031 133.351562 39.210938 C 133.886719 40.214844 134.398438 41.234375 134.886719 42.261719 C 135.371094 43.292969 135.832031 44.332031 136.269531 45.382812 C 136.703125 46.433594 137.113281 47.496094 137.496094 48.570312 C 137.882812 49.640625 138.238281 50.722656 138.570312 51.808594 C 138.898438 52.898438 139.203125 53.996094 139.480469 55.101562 C 139.757812 56.203125 140.003906 57.316406 140.226562 58.433594 C 140.449219 59.546875 140.644531 60.667969 140.8125 61.796875 C 140.976562 62.921875 141.117188 64.050781 141.230469 65.183594 C 141.339844 66.316406 141.425781 67.453125 141.480469 68.589844 C 141.535156 69.726562 141.5625 70.863281 141.5625 72.003906 Z M 141.5625 72.003906 " fill-opacity="1" fill-rule="nonzero"/></g><path fill="#ffffff" d="M 117.058594 52.96875 C 116.667969 52.046875 116.25 51.132812 115.804688 50.234375 C 115.359375 49.335938 114.890625 48.453125 114.390625 47.585938 C 113.890625 46.714844 113.367188 45.863281 112.816406 45.023438 C 112.261719 44.1875 111.6875 43.367188 111.085938 42.566406 C 110.484375 41.765625 109.859375 40.984375 109.207031 40.21875 C 108.558594 39.457031 107.886719 38.714844 107.191406 37.992188 C 106.496094 37.269531 105.78125 36.570312 105.042969 35.890625 C 104.304688 35.210938 103.546875 34.558594 102.765625 33.925781 C 101.988281 33.292969 101.191406 32.6875 100.375 32.101562 C 99.5625 31.519531 98.726562 30.964844 97.878906 30.429688 C 97.027344 29.898438 96.164062 29.394531 95.28125 28.914062 C 94.402344 28.4375 93.507812 27.984375 92.601562 27.5625 C 91.691406 27.136719 90.769531 26.742188 89.839844 26.375 C 88.90625 26.007812 87.964844 25.667969 87.007812 25.359375 C 86.054688 25.050781 85.09375 24.769531 84.125 24.519531 C 83.152344 24.265625 82.175781 24.046875 81.191406 23.855469 C 80.207031 23.664062 79.21875 23.503906 78.226562 23.375 C 77.230469 23.246094 76.234375 23.144531 75.234375 23.074219 C 74.234375 23.007812 73.234375 22.96875 72.230469 22.960938 C 71.230469 22.953125 70.226562 22.976562 69.226562 23.03125 C 68.226562 23.082031 67.226562 23.167969 66.230469 23.285156 C 65.234375 23.398438 64.242188 23.542969 63.257812 23.71875 C 62.269531 23.894531 61.289062 24.101562 60.316406 24.335938 C 59.339844 24.574219 58.375 24.839844 57.417969 25.132812 C 56.460938 25.429688 55.511719 25.753906 54.574219 26.105469 C 53.636719 26.460938 52.710938 26.839844 51.792969 27.25 C 50.878906 27.660156 49.976562 28.097656 49.089844 28.5625 C 48.203125 29.03125 47.332031 29.523438 46.472656 30.039062 C 45.613281 30.558594 44.773438 31.105469 43.949219 31.675781 C 43.125 32.246094 42.320312 32.839844 41.53125 33.460938 C 40.742188 34.078125 39.976562 34.722656 39.226562 35.390625 C 38.480469 36.058594 37.753906 36.746094 37.046875 37.457031 C 36.339844 38.167969 35.65625 38.902344 34.996094 39.65625 C 34.335938 40.40625 33.695312 41.179688 33.082031 41.972656 C 32.46875 42.765625 31.878906 43.578125 31.316406 44.40625 C 30.753906 45.234375 30.214844 46.078125 29.703125 46.941406 C 29.191406 47.800781 28.703125 48.679688 28.246094 49.570312 C 27.789062 50.460938 27.355469 51.367188 26.953125 52.285156 C 26.550781 53.203125 26.175781 54.128906 25.832031 55.070312 C 25.484375 56.011719 25.167969 56.960938 24.878906 57.921875 C 24.589844 58.882812 24.332031 59.851562 24.105469 60.828125 C 23.875 61.804688 23.679688 62.785156 23.511719 63.773438 C 23.34375 64.761719 23.203125 65.753906 23.097656 66.75 C 22.988281 67.746094 22.914062 68.746094 22.867188 69.746094 C 22.820312 70.75 22.804688 71.75 22.820312 72.753906 C 22.835938 73.753906 22.882812 74.753906 22.957031 75.753906 C 23.035156 76.753906 23.144531 77.75 23.28125 78.742188 C 23.417969 79.738281 23.585938 80.722656 23.785156 81.707031 C 23.984375 82.6875 24.210938 83.664062 24.46875 84.632812 C 24.726562 85.601562 25.015625 86.5625 25.332031 87.511719 C 25.648438 88.464844 25.996094 89.402344 26.371094 90.332031 C 26.746094 91.261719 27.148438 92.179688 27.578125 93.085938 C 28.007812 93.992188 28.46875 94.882812 28.953125 95.757812 C 29.4375 96.636719 29.949219 97.496094 30.488281 98.34375 C 31.027344 99.1875 31.589844 100.015625 32.179688 100.828125 C 32.769531 101.636719 33.382812 102.429688 34.019531 103.203125 C 34.65625 103.976562 35.320312 104.730469 36.003906 105.460938 C 36.6875 106.195312 37.390625 106.90625 38.121094 107.597656 C 38.847656 108.285156 39.59375 108.953125 40.363281 109.597656 C 41.132812 110.238281 41.917969 110.859375 42.726562 111.453125 C 43.53125 112.050781 44.355469 112.621094 45.195312 113.164062 C 46.039062 113.710938 46.894531 114.230469 47.769531 114.722656 C 48.640625 115.214844 49.527344 115.679688 50.429688 116.117188 C 51.332031 116.554688 52.246094 116.964844 53.171875 117.347656 C 54.101562 117.726562 55.039062 118.082031 55.984375 118.40625 C 56.933594 118.730469 57.890625 119.023438 58.859375 119.289062 C 59.824219 119.554688 60.796875 119.792969 61.78125 120 C 62.761719 120.203125 63.746094 120.378906 64.738281 120.527344 C 65.730469 120.671875 66.726562 120.785156 67.722656 120.871094 C 68.722656 120.957031 69.722656 121.007812 70.726562 121.03125 C 71.726562 121.054688 72.730469 121.046875 73.730469 121.007812 C 74.734375 120.972656 75.734375 120.902344 76.730469 120.800781 C 77.726562 120.703125 78.722656 120.574219 79.710938 120.414062 C 80.699219 120.25 81.683594 120.0625 82.660156 119.839844 C 83.640625 119.621094 84.609375 119.367188 85.570312 119.089844 C 86.535156 118.808594 87.488281 118.5 88.429688 118.160156 C 89.375 117.820312 90.304688 117.453125 91.226562 117.058594 C 92.148438 116.664062 93.054688 116.238281 93.949219 115.789062 C 94.84375 115.335938 95.726562 114.855469 96.589844 114.351562 C 97.457031 113.847656 98.304688 113.316406 99.136719 112.757812 C 99.972656 112.199219 100.785156 111.617188 101.582031 111.007812 C 102.382812 110.402344 103.160156 109.769531 103.917969 109.117188 C 104.675781 108.460938 105.414062 107.78125 106.128906 107.082031 C 106.847656 106.382812 107.542969 105.660156 108.214844 104.917969 C 108.886719 104.171875 109.539062 103.410156 110.164062 102.628906 C 110.789062 101.84375 111.390625 101.042969 111.96875 100.222656 C 112.542969 99.402344 113.09375 98.566406 113.621094 97.714844 C 114.144531 96.859375 114.644531 95.992188 115.117188 95.105469 C 115.589844 94.222656 116.035156 93.324219 116.453125 92.414062 C 116.867188 91.503906 117.257812 90.578125 117.617188 89.644531 C 117.980469 88.707031 118.308594 87.761719 118.613281 86.808594 C 118.914062 85.851562 119.1875 84.886719 119.433594 83.914062 C 119.675781 82.941406 119.890625 81.964844 120.074219 80.976562 C 120.253906 79.992188 120.410156 79.003906 120.53125 78.007812 C 120.65625 77.011719 120.746094 76.015625 120.808594 75.015625 C 120.871094 74.015625 120.902344 73.011719 120.902344 72.011719 C 120.910156 65.402344 119.628906 59.054688 117.058594 52.96875 Z M 65.597656 28.707031 C 67.023438 28.5 68.445312 28.351562 69.910156 28.289062 L 69.910156 48.816406 C 66.03125 48.699219 62.175781 48.3125 58.351562 47.660156 C 57.007812 47.433594 55.714844 47.183594 54.472656 46.910156 C 59.3125 35.863281 65.496094 28.898438 65.632812 28.742188 Z M 92.792969 55.066406 C 94.097656 59.773438 94.90625 64.5625 95.21875 69.4375 L 75.03125 69.4375 L 75.03125 53.972656 C 77.085938 53.914062 79.132812 53.78125 81.164062 53.578125 C 84.75 53.214844 88.300781 52.621094 91.808594 51.796875 C 92.15625 52.863281 92.484375 53.953125 92.792969 55.066406 Z M 75.03125 48.816406 L 75.03125 28.351562 C 76.675781 28.460938 78.308594 28.667969 79.929688 28.964844 C 80.519531 29.695312 85.835938 36.4375 90.042969 46.9375 C 85.097656 48.039062 80.09375 48.664062 75.03125 48.816406 Z M 57.289062 52.6875 C 61.460938 53.410156 65.667969 53.835938 69.902344 53.964844 L 69.902344 69.4375 L 48.8125 69.4375 C 49.128906 64.785156 49.945312 60.222656 51.257812 55.75 C 51.65625 54.375 52.09375 53.039062 52.554688 51.746094 C 54.058594 52.085938 55.632812 52.402344 57.292969 52.6875 Z M 46.386719 54.125 C 44.910156 59.125 44.011719 64.226562 43.695312 69.429688 L 28.316406 69.429688 C 28.554688 65.292969 29.371094 61.269531 30.757812 57.363281 C 32.144531 53.457031 34.054688 49.824219 36.484375 46.460938 C 40.078125 48.066406 43.773438 49.398438 47.5625 50.464844 C 47.148438 51.65625 46.757812 52.875 46.390625 54.125 Z M 43.609375 74.566406 C 43.683594 77.828125 44.007812 81.0625 44.585938 84.273438 C 45.054688 86.875 45.6875 89.4375 46.480469 91.960938 C 41.050781 93.582031 37.226562 95.28125 35.496094 96.105469 C 33.367188 92.898438 31.695312 89.46875 30.476562 85.816406 C 29.257812 82.164062 28.539062 78.417969 28.316406 74.574219 Z M 48.699219 74.566406 L 69.90625 74.566406 L 69.90625 88.152344 C 65.671875 88.285156 61.464844 88.707031 57.292969 89.429688 C 55.207031 89.785156 53.234375 90.199219 51.390625 90.640625 C 49.71875 85.414062 48.820312 80.054688 48.691406 74.566406 Z M 58.351562 94.453125 C 62.175781 93.804688 66.027344 93.417969 69.90625 93.300781 L 69.90625 115.722656 C 68.425781 115.652344 66.953125 115.503906 65.488281 115.285156 C 60.074219 108.878906 55.964844 102.285156 53.164062 95.5 C 54.796875 95.117188 56.523438 94.761719 58.351562 94.453125 Z M 75.03125 93.300781 C 80.558594 93.46875 86.007812 94.203125 91.378906 95.5 C 88.992188 102.054688 85.519531 108.472656 80.960938 114.753906 L 81.0625 114.828125 C 79.074219 115.246094 77.0625 115.523438 75.03125 115.660156 Z M 81.164062 88.539062 C 79.136719 88.335938 77.089844 88.207031 75.03125 88.148438 L 75.03125 74.566406 L 95.320312 74.566406 C 95.21875 80.007812 94.429688 85.34375 92.957031 90.582031 C 89.078125 89.621094 85.148438 88.9375 81.167969 88.539062 Z M 99.75 82.945312 C 100.140625 80.167969 100.363281 77.375 100.414062 74.566406 L 115.691406 74.566406 C 115.46875 78.414062 114.75 82.167969 113.53125 85.824219 C 112.3125 89.480469 110.636719 92.914062 108.503906 96.125 C 105.050781 94.5 101.503906 93.117188 97.867188 91.972656 C 98.695312 89.007812 99.324219 85.996094 99.753906 82.945312 Z M 100.320312 69.4375 C 100.019531 64.03125 99.136719 58.71875 97.675781 53.503906 C 97.390625 52.472656 97.089844 51.464844 96.773438 50.476562 C 100.445312 49.378906 104.023438 48.035156 107.511719 46.445312 C 109.945312 49.808594 111.859375 53.445312 113.25 57.355469 C 114.640625 61.261719 115.457031 65.289062 115.699219 69.433594 Z M 104.144531 42.332031 C 101.183594 43.621094 98.152344 44.71875 95.050781 45.632812 C 93.082031 40.578125 90.648438 35.757812 87.753906 31.171875 C 90.878906 32.382812 93.824219 33.929688 96.589844 35.816406 C 99.359375 37.699219 101.878906 39.871094 104.148438 42.332031 Z M 57.699219 30.636719 C 54.417969 35.359375 51.65625 40.367188 49.410156 45.660156 C 46.152344 44.753906 42.964844 43.648438 39.847656 42.339844 C 42.296875 39.683594 45.03125 37.367188 48.054688 35.386719 C 51.078125 33.40625 54.292969 31.824219 57.707031 30.636719 Z M 38.648438 100.300781 C 41.757812 98.925781 44.941406 97.761719 48.203125 96.808594 C 50.457031 102.433594 53.515625 107.914062 57.378906 113.253906 C 53.742188 111.953125 50.335938 110.207031 47.160156 108.011719 C 43.984375 105.816406 41.148438 103.246094 38.648438 100.300781 Z M 88.695312 112.457031 C 91.796875 107.535156 94.335938 102.339844 96.304688 96.863281 C 99.390625 97.828125 102.40625 98.976562 105.351562 100.3125 C 103.09375 102.96875 100.558594 105.324219 97.746094 107.375 C 94.929688 109.429688 91.914062 111.121094 88.695312 112.457031 Z M 88.695312 112.457031 " fill-opacity="1" fill-rule="nonzero"/></svg>